<?xml version="1.0" standalone="no"?>
<!DOCTYPE svg PUBLIC "-//W3C//DTD SVG 1.1//EN" "http://www.w3.org/Graphics/SVG/1.1/DTD/svg11.dtd" >
<svg xmlns="http://www.w3.org/2000/svg">
<metadata>Generated by IcoMoon</metadata>
<defs>
<font id="icomoon" horiz-adv-x="1024">
<font-face units-per-em="1024" ascent="960" descent="-64" />
<missing-glyph horiz-adv-x="1024" />
<glyph unicode="&#x20;" horiz-adv-x="512" d="" />
<glyph unicode="&#xe900;" glyph-name="star" d="M535.631 917.99l131.282-309.826 330.831-26.256c21.005 0 31.508-31.508 15.754-47.262l-252.062-220.554 73.518-325.579c5.251-21.005-21.005-42.010-36.759-26.256l-288.821 173.292-283.569-173.292c-21.005-10.503-42.010 5.251-36.759 26.256l73.518 330.831-252.062 220.554c-21.005 10.503-10.503 42.010 15.754 42.010l330.831 26.256 131.282 309.826c10.503 26.256 36.759 26.256 47.262 0z" />
<glyph unicode="&#xe901;" glyph-name="close" horiz-adv-x="1074" d="M1013.961 46.431l-401.569 411.608 401.569 391.529-110.431 110.431-391.529-401.569-391.529 391.529-110.431-110.431 391.529-381.49-401.569-401.569 110.431-110.431 401.569 401.569 401.569-401.569z" />
<glyph unicode="&#xe902;" glyph-name="edit" d="M957.668 893.668c-88.152 88.37-231.507 88.37-319.659 0l-586.078-585.86c-4.582-4.582-7.419-10.473-8.291-16.801l-43.421-321.623c-1.309-9.164 1.964-18.329 8.291-24.656 5.455-5.455 13.092-8.728 20.729-8.728 1.309 0 2.618 0 3.928 0.218l193.759 26.184c16.147 2.182 27.493 17.019 25.311 33.166s-17.019 27.493-33.166 25.311l-155.356-20.947 30.329 224.307 236.089-236.089c5.455-5.455 13.092-8.728 20.729-8.728s15.274 3.055 20.729 8.728l586.078 585.86c42.767 42.767 66.332 99.498 66.332 159.939s-23.565 117.172-66.332 159.72zM649.355 821.663l98.407-98.407-534.802-534.802-98.407 98.407 534.802 534.802zM351.079 50.554l-96.225 96.225 534.802 534.802 96.225-96.225-534.802-534.802zM926.902 627.467l-235.435 235.435c29.893 24.656 67.205 38.185 106.48 38.185 44.73 0 86.624-17.456 118.263-48.876s48.876-73.532 48.876-118.263c0-39.494-13.528-76.587-38.185-106.48z" />
<glyph unicode="&#xe903;" glyph-name="card" horiz-adv-x="1422" d="M1297.936 960h-1160.968c-71.745 0-130.446-58.701-130.446-130.446v-763.108c0-71.745 58.701-130.446 130.446-130.446h1160.968c71.745 0 130.446 58.701 130.446 130.446v763.108c-6.522 71.745-65.223 130.446-130.446 130.446zM136.968 894.777h1160.968c32.611 0 65.223-26.089 65.223-65.223v-78.268h-1291.414v78.268c0 32.611 26.089 65.223 65.223 65.223zM1356.637 686.064v-117.401h-1284.892v117.401h1284.892zM1297.936 1.223h-1160.968c-32.611 0-65.223 26.089-65.223 65.223v436.994h1291.414v-436.994c-6.522-39.134-32.611-65.223-65.223-65.223zM1108.79 425.172c-91.312 0-163.057-71.745-163.057-163.057s71.745-163.057 163.057-163.057 163.057 71.745 163.057 163.057-71.745 163.057-163.057 163.057zM1108.79 164.28c-52.178 0-97.834 45.656-97.834 97.834s45.656 97.834 97.834 97.834 97.834-45.656 97.834-97.834-45.656-97.834-97.834-97.834zM202.191 340.382h391.338v-65.223h-391.338v65.223zM202.191 222.981h391.338v-65.223h-391.338v65.223z" />
<glyph unicode="&#xe904;" glyph-name="file" horiz-adv-x="818" d="M738.575 715.77v241.287h-735.632v-929.839h91.218v-88.276h723.862v703.264l-79.448 73.563zM788.598 624.552h-208.92v203.034l208.92-197.149v-5.885zM32.368 56.644v870.989h676.782v-185.379l-132.414 123.586h-482.575v-812.138h-61.793zM123.586-31.632v870.989h426.667v-244.23h238.345v-626.759h-665.011zM238.345 665.747h203.034v-29.425h-203.034v29.425zM238.345 527.448h438.437v-29.425h-438.437v29.425zM238.345 403.862h438.437v-29.425h-438.437v29.425zM238.345 256.736h438.437v-29.425h-438.437v29.425zM238.345 139.034h438.437v-29.425h-438.437v29.425z" />
<glyph unicode="&#xe905;" glyph-name="map" horiz-adv-x="834" d="M414.678-64l-16.926 16.926c-16.926 16.926-397.752 368.132-397.752 592.397 0 228.496 186.182 414.678 414.678 414.678s414.678-186.182 414.678-414.678c0-224.264-380.826-575.471-397.752-592.397l-16.926-16.926zM414.678 904.992c-198.876 0-363.901-160.793-363.901-363.901 0-177.719 287.736-465.455 363.901-537.388 76.165 71.934 363.901 363.901 363.901 537.388 0 203.107-160.793 363.901-363.901 363.901zM427.372 350.678c-114.248 0-207.339 93.091-207.339 207.339s93.091 207.339 207.339 207.339c114.248 0 207.339-93.091 207.339-207.339 0-118.479-93.091-207.339-207.339-207.339zM427.372 710.347c-84.628 0-156.562-67.702-156.562-156.562 0-84.628 67.702-156.562 156.562-156.562 84.628 0 156.562 67.702 156.562 156.562s-71.934 156.562-156.562 156.562z" />
<glyph unicode="&#xe906;" glyph-name="verifi" horiz-adv-x="1029" d="M1.337 958.663v-1022.663h1026.674v1022.663h-1026.674zM1007.958 815.624h-707.175v122.987h707.175v-122.987zM280.731 938.611v-122.987h-259.342v122.987h259.342zM21.389-42.611v838.183h986.569v-838.183h-986.569zM172.449 41.608h685.786v156.407h-685.786v-156.407zM838.183 61.661h-117.64v117.64h117.64v-117.64zM192.501 177.963h507.99v-117.64h-507.99v117.64zM244.637 129.838h102.935v-24.063h-102.935v24.063zM173.786 728.731v25.399h-102.935v-61.493h24.063v36.094zM203.196 754.131h40.104v-24.063h-40.104v24.063zM68.178 893.159h40.104v-24.063h-40.104v24.063zM136.355 893.159h40.104v-24.063h-40.104v24.063zM203.196 893.159h40.104v-24.063h-40.104v24.063zM926.413 754.131h50.799v-24.063h-50.799v24.063zM376.982 129.838h40.104v-24.063h-40.104v24.063zM443.822 129.838h40.104v-24.063h-40.104v24.063zM512 129.838h40.104v-24.063h-40.104v24.063zM589.535 129.838h40.104v-24.063h-40.104v24.063zM520.021 244.804c140.366 0 253.995 113.629 253.995 253.995s-113.629 253.995-253.995 253.995-253.995-113.629-253.995-253.995 114.966-253.995 253.995-253.995zM520.021 732.742c128.334 0 233.943-104.272 233.943-233.943s-104.272-233.943-233.943-233.943-233.943 104.272-233.943 233.943 105.608 233.943 233.943 233.943zM651.029 573.661h-34.757v70.851h-196.512v-70.851h-36.094v-191.164h267.363v191.164zM439.812 624.46h156.407v-50.799h-156.407v50.799zM630.977 402.548h-98.924v48.125c12.031 5.347 21.389 17.379 21.389 30.747 0 18.715-14.705 33.42-33.42 33.42s-33.42-14.705-33.42-33.42c0-13.368 8.021-25.399 20.052-30.747v-48.125h-101.598v151.060h227.258v-151.060z" />
<glyph unicode="&#xe907;" glyph-name="car-pass" horiz-adv-x="1226" d="M1120.43-64h-1014.816c-55.103 0-101.022 45.919-101.022 101.022v812.771c0 55.103 45.919 101.022 101.022 101.022h1014.816c55.103 0 101.022-45.919 101.022-101.022v-812.771c0-55.103-45.919-101.022-101.022-101.022zM105.614 904.897c-32.143 0-55.103-22.96-55.103-55.103v-812.771c0-32.143 22.96-55.103 55.103-55.103h1014.816c32.143 0 55.103 22.96 55.103 55.103v812.771c0 32.143-22.96 55.103-55.103 55.103h-1014.816zM909.202 289.578h-619.91v293.883h619.91v-293.883zM335.211 335.498h528.072v202.045h-528.072v-202.045zM854.099 537.543h-509.704l68.879 229.596h381.13l59.695-229.596zM404.090 583.462h390.314l-36.735 137.758h-312.251l-41.327-137.758zM326.027 303.354h78.063v-59.695h-78.063v59.695zM808.179 303.354h78.063v-59.695h-78.063v59.695zM831.139 611.013h114.798v-50.511h-114.798v50.511zM257.148 611.013h114.798v-50.511h-114.798v50.511zM404.090 468.664h78.063v-73.471h-78.063v73.471zM725.525 468.664h78.063v-73.471h-78.063v73.471z" />
<glyph unicode="&#xe908;" glyph-name="select-file" horiz-adv-x="1162" d="M117.979 230.948h473.43v-22.688h-473.43v22.688zM117.979 329.264h473.43v-22.688h-473.43v22.688zM1160.13 958.487h-723.001v-75.628h-199.657v19.663c0 28.739-21.176 49.914-54.452 54.452l-7.563 1.513c-34.789 3.025-63.527-6.050-83.191-24.201-18.151-16.638-24.201-37.814-25.713-51.427h-65.040v-945.347h530.907l99.829 101.341 86.216 90.753v242.009h441.666v586.871zM1137.442 935.799v-440.154l-136.13 146.718-102.854-111.929-272.26 293.436-166.381-184.532v296.461h677.625zM459.817 606.062l166.381 184.532 257.134-278.31-107.391-117.979h-316.124v211.758zM107.391 917.648c15.126 13.613 37.814 19.663 66.552 18.151l6.050-1.513c16.638-3.025 34.789-12.1 34.789-33.276v-19.663h-125.542c3.025 12.1 7.563 25.713 18.151 36.301zM615.61 55.492l-75.628-78.653v148.23l140.668-1.513-65.040-68.065zM695.775 144.733l-178.482 1.513v-187.557h-493.093v901.483h190.582v-149.743c0-18.151-15.126-33.276-33.276-33.276h-6.050c-18.151 0-33.276 15.126-33.276 33.276v104.366h-22.688v-104.366c0-30.251 25.713-55.965 55.965-55.965h6.050c30.251 0 55.965 25.713 55.965 55.965v149.743h199.657v-238.984h-319.149v-22.688h320.662v-80.165h-320.662v-22.688h320.662v-75.628h-320.662v-22.688h320.662v-27.226h257.134v-225.371zM806.192 394.304l195.12 213.27 136.13-146.718v-68.065h-331.25zM915.096 693.79c42.352 0 75.628 34.789 75.628 75.628 0 42.352-34.789 75.628-75.628 75.628-42.352 0-75.628-34.789-75.628-75.628-1.513-40.839 33.276-75.628 75.628-75.628zM915.096 823.87c30.251 0 52.939-24.201 52.939-52.939 0-30.251-24.201-52.939-52.939-52.939-30.251 0-52.939 24.201-52.939 52.939-1.513 28.739 22.688 52.939 52.939 52.939z" />
<glyph unicode="&#xe909;" glyph-name="accept" horiz-adv-x="1494" d="M576.474-56.415l-561.304 546.133c-15.17 15.17-22.756 53.096 0 75.852s60.681 22.756 83.437 0l477.867-462.696 819.2 834.37c22.756 22.756 60.681 22.756 83.437 0s22.756-60.681 0-83.437l-902.637-910.222z" />
<glyph unicode="&#xe90a;" glyph-name="map-pass" horiz-adv-x="852" d="M766.046-64h-680.061c-46.901 0-85.985 39.084-85.985 85.985v852.031c3.908 46.901 39.084 85.985 85.985 85.985h680.061c46.901 0 85.985-39.084 85.985-85.985v-852.031c0-46.901-39.084-85.985-85.985-85.985zM85.985 920.916c-23.45 0-42.992-23.45-42.992-46.901v-852.031c0-23.45 19.542-46.901 46.901-46.901h680.061c23.45 0 46.901 19.542 46.901 46.901v852.031c0 23.45-19.542 46.901-46.901 46.901h-683.969zM433.832 272.122l-11.725 11.725c-7.817 7.817-211.053 203.237-211.053 320.489 0 121.16 101.618 222.779 222.779 222.779s222.779-101.618 222.779-222.779c0-117.252-199.328-312.672-211.053-320.489l-11.725-11.725zM433.832 788.031c-101.618 0-183.695-82.076-183.695-183.695 0-78.168 121.16-218.87 183.695-277.496 62.534 62.534 183.695 199.328 183.695 277.496 0 101.618-82.076 183.695-183.695 183.695zM433.832 502.718c-54.718 0-101.618 46.901-101.618 101.618s46.901 101.618 101.618 101.618 101.618-46.901 101.618-101.618-46.901-101.618-101.618-101.618zM433.832 662.962c-35.176 0-62.534-27.359-62.534-62.534s27.359-62.534 62.534-62.534 62.534 27.359 62.534 62.534-27.359 62.534-62.534 62.534z" />
<glyph unicode="&#xe90b;" glyph-name="int-pass" horiz-adv-x="838" d="M754.726-60.207h-667.496c-45.511 0-83.437 37.926-83.437 83.437v853.333c0 45.511 34.133 83.437 83.437 83.437h667.496c45.511 0 83.437-37.926 83.437-83.437v-853.333c0-45.511-37.926-83.437-83.437-83.437zM87.23 922.074c-26.548 0-45.511-22.756-45.511-45.511v-853.333c0-26.548 18.963-45.511 45.511-45.511h667.496c26.548 0 45.511 18.963 45.511 45.511v853.333c0 26.548-18.963 45.511-45.511 45.511h-667.496zM424.77 254.578c-125.156 0-227.556 102.4-227.556 227.556s102.4 227.556 227.556 227.556 227.556-102.4 227.556-227.556-102.4-227.556-227.556-227.556zM424.77 671.763c-106.193 0-189.63-87.23-189.63-189.63s87.23-189.63 189.63-189.63 189.63 87.23 189.63 189.63-87.23 189.63-189.63 189.63zM197.215 504.889h436.148v-30.341h-436.148v30.341zM364.089 690.726h30.341v-417.185h-30.341v417.185zM273.067 641.422h30.341v-318.578h-30.341v318.578zM462.696 690.726h30.341v-409.6h-30.341v409.6zM549.926 641.422h30.341v-299.615h-30.341v299.615z" />
<glyph unicode="&#xe90c;" glyph-name="cal" horiz-adv-x="1006" d="M914.129 828.155h-74.712c-4.395 79.107-43.948 127.451-114.266 127.451-17.579 0-35.159-4.395-43.948-17.579-17.579-21.974-17.579-61.528-17.579-109.871v0h-52.738c-4.395 79.107-43.948 127.451-114.266 127.451-17.579 0-35.159-4.395-43.948-17.579-17.579-21.974-17.579-61.528-17.579-109.871v0h-61.528c-4.395 79.107-43.948 127.451-114.266 127.451-17.579 0-35.159-4.395-43.948-17.579-21.974-21.974-21.974-61.528-21.974-109.871v0h-96.687c-48.343 0-87.897-39.554-87.897-87.897v-711.966c0-48.343 39.554-87.897 87.897-87.897h821.837c48.343 0 87.897 39.554 87.897 87.897v711.966c-4.395 48.343-43.948 87.897-92.292 87.897zM707.571 828.155c0 35.159 0 70.318 8.79 79.107 0 0 4.395 4.395 13.185 4.395 17.579 0 65.923 0 70.318-83.502h-92.292zM479.039 828.155c0 35.159 0 70.318 8.79 79.107 0 0 4.395 4.395 13.185 4.395 17.579 0 65.923 0 70.318-83.502h-92.292zM237.322 828.155c0 35.159 0 70.318 8.79 79.107 0 0 4.395 4.395 13.185 4.395 17.579 0 65.923 0 70.318-83.502h-92.292zM96.687 784.206h232.927c-4.395-65.923-21.974-101.082-57.133-101.082v-43.948c39.554 0 92.292 26.369 96.687 140.635h197.768c-4.395-65.923-21.974-96.687-52.738-96.687v-43.948c39.554 0 92.292 26.369 96.687 140.635h188.979c-4.395-65.923-21.974-96.687-52.738-96.687v-43.948c39.554 0 92.292 26.369 96.687 140.635h74.712c21.974 0 43.948-17.579 43.948-43.948v-145.030h-909.734v149.425c0 21.974 17.579 43.948 43.948 43.948zM914.129-15.657h-817.442c-21.974 0-43.948 17.579-43.948 43.948v518.592h909.734v-522.987c-4.395-21.974-21.974-39.554-48.343-39.554zM131.845 59.056h760.309v408.721h-760.309v-408.721zM175.794 239.245h131.845v-140.635h-131.845v140.635zM531.777 283.193v140.635h131.845v-140.635h-131.845zM663.622 239.245v-140.635h-131.845v140.635h131.845zM487.828 283.193h-136.24v140.635h136.24v-140.635zM487.828 239.245v-140.635h-136.24v140.635h136.24zM707.571 103.004v140.635h140.635v-140.635h-140.635zM848.206 283.193h-140.635v140.635h140.635v-140.635zM307.639 423.828v-140.635h-131.845v140.635h131.845z" />
<glyph unicode="&#xe90d;" glyph-name="contact" horiz-adv-x="1243" d="M1195.381 724.351c-4.285 0-4.285 0 0 0-12.854 12.854-25.707 21.423-38.561 34.276-8.569 8.569-17.138 17.138-25.707 25.707-21.423 21.423-42.845 29.992-68.552 29.992s-47.13-8.569-68.552-29.992v59.983c0 64.268-51.414 111.397-111.397 111.397h-766.929c-64.268 0-115.682-47.13-115.682-111.397v-509.858c0-64.268 51.414-111.397 111.397-111.397h317.054c0 0-4.285-4.285-4.285-4.285-12.854-12.854-25.707-25.707-38.561-38.561-17.138-17.138-29.992-42.845-29.992-68.552s8.569-47.13 29.992-68.552c0 0 0 0 0 0l68.552-68.552c25.707-25.707 55.699-38.561 94.259-42.845 59.983-4.285 111.397 12.854 145.674 25.707 85.69 34.276 167.096 81.406 252.787 149.958 102.828 85.69 184.234 192.803 244.218 312.77 21.423 47.13 47.13 107.113 51.414 175.665 0 4.285 0 8.569 0 12.854 0 47.13-17.138 85.69-47.13 115.682zM51.414 844.318c0 34.276 25.707 59.983 59.983 59.983h766.929c34.276 0 59.983-25.707 59.983-59.983v-107.113l-59.983-59.983c-21.423-17.138-29.992-42.845-29.992-68.552s8.569-47.13 29.992-68.552l64.268-64.268c-4.285-4.285-4.285-8.569-8.569-17.138s-8.569-12.854-8.569-21.423c-17.138-25.707-34.276-51.414-59.983-77.121l-231.364 231.364 248.502 252.787-38.561 34.276-347.046-347.046-347.046 355.615-38.561-34.276 248.502-257.071-295.632-295.632c-8.569 8.569-12.854 21.423-12.854 34.276v509.858zM111.397 274.477l287.063 287.063 102.828-102.828 107.113 107.113 231.364-231.364c-17.138-17.138-34.276-34.276-55.699-51.414-29.992-25.707-55.699-42.845-85.69-55.699-12.854 17.138-29.992 29.992-47.13 47.13-4.285 4.285-12.854 12.854-17.138 17.138-42.845 42.845-94.259 42.845-137.105 0l-17.138-17.138h-368.469c0 0 0 0 0 0zM1186.812 600.1c-4.285-59.983-25.707-115.682-47.13-154.243-55.699-111.397-132.82-209.941-231.364-291.347-81.406-68.552-158.527-111.397-239.933-141.389-51.414-17.138-89.975-25.707-124.251-21.423-21.423 0-42.845 12.854-59.983 25.707l-68.552 68.552c-8.569 8.569-12.854 21.423-12.854 29.992 0 12.854 8.569 21.423 12.854 29.992 0 0 0 0 0 0 12.854 12.854 21.423 25.707 34.276 34.276 4.285 4.285 12.854 12.854 17.138 17.138l55.699 55.699c21.423 21.423 38.561 21.423 59.983 0 4.285-4.285 12.854-12.854 17.138-17.138 17.138-17.138 34.276-34.276 47.13-51.414 0 0 0 0 0 0 17.138-17.138 34.276-12.854 47.13-8.569 0 0 0 0 0 0 34.276 12.854 64.268 34.276 102.828 64.268v0c68.552 55.699 119.967 111.397 158.527 175.665 4.285 8.569 8.569 17.138 12.854 25.707s8.569 12.854 8.569 21.423c0 0 0 0 0 4.285 4.285 8.569 4.285 12.854 4.285 21.423 0 17.138-8.569 25.707-12.854 29.992l-68.552 68.552c-8.569 8.569-12.854 17.138-12.854 29.992s8.569 21.423 12.854 29.992c0 0 0 0 0 0l111.397 111.397c21.423 21.423 42.845 21.423 59.983 0 8.569-8.569 17.138-17.138 25.707-25.707 12.854-12.854 25.707-25.707 38.561-38.561 21.423-21.423 29.992-42.845 29.992-72.837 25.707-12.854 25.707-17.138 21.423-21.423z" />
<glyph unicode="&#xe90f;" glyph-name="nat-pass" horiz-adv-x="838" d="M754.726-60.207h-667.496c-45.511 0-83.437 37.926-83.437 83.437v849.541c0 45.511 37.926 83.437 83.437 83.437h667.496c45.511 0 83.437-37.926 83.437-83.437v-853.333c0-41.719-37.926-79.644-83.437-79.644zM87.23 918.281c-26.548 0-45.511-18.963-45.511-45.511v-853.333c0-26.548 18.963-45.511 45.511-45.511h667.496c26.548 0 45.511 18.963 45.511 45.511v853.333c0 26.548-18.963 45.511-45.511 45.511h-667.496zM405.807 451.793c-79.644 0-144.119 64.474-144.119 144.119s64.474 144.119 144.119 144.119 144.119-64.474 144.119-144.119-64.474-144.119-144.119-144.119zM405.807 698.311c-56.889 0-106.193-45.511-106.193-106.193s45.511-106.193 106.193-106.193 106.193 45.511 106.193 106.193-49.304 106.193-106.193 106.193zM219.97 228.030c-53.096 0-56.889 0-64.474 7.585l-3.793 7.585v7.585c0 136.533 106.193 235.141 254.104 235.141s254.104-98.607 254.104-235.141v-18.963h-18.963c0 0-91.022 0-219.97 0-41.719 0-87.23 0-121.363 0-34.133-3.793-60.681-3.793-79.644-3.793zM189.63 265.956c22.756 0 64.474 0 106.193 0 37.926 0 79.644 0 121.363 0 94.815 0 166.874 0 201.007 0-7.585 102.4-98.607 178.252-216.178 178.252-113.778 3.793-201.007-72.059-212.385-178.252z" />
<glyph unicode="&#xe910;" d="M1017.263 448c0-279.049-226.214-505.263-505.263-505.263s-505.263 226.214-505.263 505.263c0 279.049 226.214 505.263 505.263 505.263s505.263-226.214 505.263-505.263z" />
<glyph unicode="&#xe911;" d="M673.684 185.263l-256 188.632v404.211h101.053v-350.316l215.579-161.684z" />
<glyph unicode="&#xe912;" glyph-name="personal-data" horiz-adv-x="1507" d="M1226.868 960l-33.811-4.83 4.83-33.811c0-4.83 0-4.83 0-9.66 0-48.302-38.642-86.943-86.943-86.943s-86.943 38.642-86.943 86.943c0 4.83 0 4.83 0 9.66l4.83 38.642h-507.17l-33.811-4.83 4.83-33.811c0-4.83 0-4.83 0-9.66 0-48.302-38.642-86.943-86.943-86.943s-86.943 43.472-86.943 91.774c0 4.83 0 4.83 0 9.66l4.83 33.811h-323.623v-1019.17h1507.019v1019.17h-280.151zM1449.057-1.208h-1391.094v903.245h202.868c4.83-72.453 67.623-130.415 144.906-130.415s135.245 57.962 144.906 130.415h415.396c4.83-72.453 67.623-130.415 144.906-130.415s135.245 57.962 144.906 130.415h193.208v-903.245zM825.962 602.566h96.604v-57.962h-96.604v57.962zM970.868 602.566h338.113v-57.962h-338.113v57.962zM825.962 414.189h96.604v-57.962h-96.604v57.962zM970.868 414.189h338.113v-57.962h-338.113v57.962zM825.962 264.453h96.604v-57.962h-96.604v57.962zM970.868 264.453h338.113v-57.962h-338.113v57.962zM531.321 404.528c33.811 28.981 53.132 72.453 53.132 115.925 0 86.943-67.623 154.566-154.566 154.566s-154.566-67.623-154.566-154.566c0-48.302 24.151-91.774 53.132-115.925-91.774-38.642-159.396-130.415-159.396-236.679v-28.981h516.83v28.981c4.83 101.434-62.792 193.208-154.566 236.679zM333.283 520.453c0 53.132 43.472 96.604 96.604 96.604s96.604-43.472 96.604-96.604-43.472-96.604-96.604-96.604-96.604 43.472-96.604 96.604zM231.849 192c14.491 96.604 96.604 173.887 198.038 173.887s183.547-77.283 198.038-173.887h-396.075z" />
<glyph unicode="&#xe913;" glyph-name="account" horiz-adv-x="884" d="M794.281 956.106h-704.73c-46.722 0-85.658-38.935-85.658-85.658v-844.897c0-46.722 38.935-85.658 85.658-85.658h704.73c46.722 0 85.658 38.935 85.658 85.658v844.897c0 46.722-38.935 85.658-85.658 85.658zM841.004 25.551c0-27.255-19.468-46.722-46.722-46.722h-704.73c-27.255 0-46.722 19.468-46.722 46.722v844.897c0 27.255 19.468 46.722 46.722 46.722h704.73c27.255 0 46.722-19.468 46.722-46.722v-844.897zM144.061 812.046h584.030v-38.935h-584.030v38.935zM144.061 617.369h584.030v-38.935h-584.030v38.935zM144.061 422.692h299.802v-38.935h-299.802v38.935zM611.285 286.418c-35.042 15.574-50.616 23.361-50.616 42.829 0 15.574 11.681 31.148 42.829 31.148s46.722-11.681 58.403-15.574l11.681 38.935c-15.574 7.787-31.148 11.681-58.403 15.574v38.935h-35.042v-42.829c-42.829-7.787-70.084-35.042-70.084-73.977s31.148-62.297 73.977-77.871c31.148-11.681 46.722-23.361 46.722-42.829s-19.468-35.042-46.722-35.042c-27.255 0-50.616 7.787-66.19 19.468l-11.681-38.935c15.574-11.681 42.829-19.468 70.084-19.468v-42.829h35.042v42.829c46.722 7.787 73.977 38.935 73.977 77.871-3.894 38.935-23.361 62.297-73.977 81.764z" />
<glyph unicode="&#xe914;" glyph-name="map-home" horiz-adv-x="867" d="M778.547-64h-694.172c-46.022 0-84.375 38.352-84.375 84.375v855.251c0 46.022 38.352 84.375 84.375 84.375h694.172c46.022 0 84.375-38.352 84.375-84.375v-851.416c0-49.858-38.352-88.21-84.375-88.21zM84.375 921.648c-23.011 0-46.022-23.011-46.022-46.022v-851.416c0-26.846 19.176-46.022 46.022-46.022h694.172c26.846 0 46.022 19.176 46.022 46.022v851.416c0 23.011-19.176 46.022-46.022 46.022h-694.172zM648.15 331.026h-161.079v161.079h-76.704v-161.079h-161.079v233.948h38.352v-195.596h84.375v161.079h153.408v-161.079h84.375v195.596h38.352zM268.464 522.787l-95.88 3.835 276.135 295.311 279.97-291.476-99.715-3.835v38.352h15.341l-195.596 203.266-191.76-207.101h15.341z" />
<glyph unicode="&#xe915;" glyph-name="clock" horiz-adv-x="1029" d="M514.359-64c-283.134 0-509.641 226.507-509.641 509.641s226.507 509.641 509.641 509.641 509.641-226.507 509.641-509.641-226.507-509.641-509.641-509.641zM514.359 884.498c-240.664 0-438.857-198.194-438.857-438.857s198.194-438.857 438.857-438.857 438.857 198.194 438.857 438.857-198.194 438.857-438.857 438.857zM698.396 176.664l-217.069 207.631v382.23h70.783v-353.917l193.475-184.037z" />
<glyph unicode="&#xe916;" glyph-name="delete" d="M809.181 837.307h-159.416c-8.066 68.988-66.653 122.693-137.765 122.693s-129.698-53.705-137.552-122.693h-159.416c-64.531 0-116.962-52.431-116.962-116.962v-5.944c0-49.247 30.779-91.489 73.871-108.683v-552.756c0-64.531 52.431-116.962 116.962-116.962h446.196c64.531 0 116.962 52.431 116.962 116.962v552.756c43.303 17.194 73.871 59.436 73.871 108.683v5.944c0.212 64.531-52.219 116.962-116.75 116.962zM512 904.597c40.332 0 74.083-28.869 81.512-67.29h-163.237c7.642 38.209 41.393 67.29 81.725 67.29zM796.657 52.962c0-33.964-27.595-61.559-61.559-61.559h-446.196c-33.964 0-61.559 27.595-61.559 61.559v544.265h569.313v-544.265zM870.527 714.401c0-33.964-27.595-61.559-61.559-61.559h-593.937c-33.964 0-61.559 27.595-61.559 61.559v5.944c0 33.964 27.595 61.559 61.559 61.559h594.149c33.964 0 61.559-27.595 61.559-61.559l-0.212-5.944zM363.197 62.302c15.284 0 27.808 12.524 27.808 27.808v312.464c0 15.284-12.524 27.808-27.808 27.808s-27.808-12.524-27.808-27.808v-312.464c0.212-15.284 12.524-27.808 27.808-27.808zM512 62.302c15.284 0 27.808 12.524 27.808 27.808v312.464c0 15.284-12.524 27.808-27.808 27.808s-27.808-12.524-27.808-27.808v-312.464c0-15.284 12.524-27.808 27.808-27.808zM660.803 62.302c15.284 0 27.808 12.524 27.808 27.808v312.464c0 15.284-12.524 27.808-27.808 27.808s-27.808-12.524-27.808-27.808v-312.464c0-15.284 12.524-27.808 27.808-27.808z" />
<glyph unicode="&#xe917;" glyph-name="QR" d="M452 960h-422c-16.6 0-30-13.4-30-30v-422c0-16.6 13.4-30 30-30h422c16.6 0 30 13.4 30 30v422c0 16.6-13.4 30-30 30zM422 538h-362v362h362v-362zM994 960h-422c-16.6 0-30-13.4-30-30v-422c0-16.6 13.4-30 30-30h422c16.6 0 30 13.4 30 30v422c0 16.6-13.4 30-30 30zM964 538h-362v362h362v-362zM872 838h-180c-16.6 0-30-13.4-30-30v-180c0-16.6 13.4-30 30-30h180c16.6 0 30 13.4 30 30v180c0 16.6-13.4 30-30 30zM842 658h-120v120h120v-120zM332 838h-180c-16.6 0-30-13.4-30-30v-180c0-16.6 13.4-30 30-30h180c16.6 0 30 13.4 30 30v180c0 16.6-13.4 30-30 30zM302 658h-120v120h120v-120zM332 298h-180c-16.6 0-30-13.4-30-30v-180c0-16.6 13.4-30 30-30h180c16.6 0 30 13.4 30 30v180c0 16.6-13.4 30-30 30zM302 118h-120v120h120v-120zM452 418h-422c-16.6 0-30-13.4-30-30v-422c0-16.6 13.4-30 30-30h422c16.6 0 30 13.4 30 30v422c0 16.6-13.4 30-30 30zM422-4h-362v362h362v-362zM994 238c-16.6 0-30-13.4-30-30v-90h-152c-16.6 0-30-13.4-30-30v-92h-180v92c0 16.6-13.4 30-30 30s-30-13.4-30-30v-122c0-16.6 13.4-30 30-30h240c16.6 0 30 13.4 30 30v92h152c16.6 0 30 13.4 30 30v120c0 16.6-13.4 30-30 30zM752 418h-180c-16.6 0-30-13.4-30-30v-180c0-16.6 13.4-30 30-30s30 13.4 30 30v150h120v-30c0-16.6 13.4-30 30-30s30 13.4 30 30v60c0 16.6-13.4 30-30 30zM994 418h-122c-16.6 0-30-13.4-30-30v-150.4h-150c-16.6 0-30-13-30-29.6 0 0 0 0 0 0s0 0 0 0v-120c0-16.6 13.4-30 30-30s30 13.4 30 30v90h150c8 0 15.6 3.2 21.2 8.8s8.8 13.2 8.8 21.2v150h92c16.6 0 30 13.4 30 30s-13.4 30-30 30zM994-4h-62c-16.6 0-30-13.4-30-30s13.4-30 30-30h62c16.6 0 30 13.4 30 30s-13.4 30-30 30z" />
<glyph unicode="&#xe918;" glyph-name="circle-accept" d="M874 810c-96.6 96.8-225.2 150-362 150s-265.4-53.2-362-150c-96.8-96.6-150-225.2-150-362s53.2-265.4 150-362 225.2-150 362-150c136.8 0 265.4 53.2 362 150s150 225.2 150 362-53.2 265.4-150 362zM512-4c-249.2 0-452 202.8-452 452s202.8 452 452 452 452-202.8 452-452-202.8-452-452-452zM756.6 612.2c-11.8 11.8-30.8 11.8-42.4 0l-265-264.8-139.4 139.4c-11.8 11.8-30.8 11.8-42.4 0s-11.8-30.8 0-42.4l160.6-160.6c5.8-5.8 13.6-8.8 21.2-8.8s15.4 3 21.2 8.8l286.2 286.2c11.8 11.6 11.8 30.6 0 42.2z" />
<glyph unicode="&#xe919;" glyph-name="pay-card" d="M545.987 286.063h272.893c10.196 0 16.993 6.797 16.993 16.993v153.54c0 10.196-6.797 16.993-16.993 16.993h-272.893c-10.196 0-16.993-6.797-16.993-16.993v-153.54c-0.2-10.196 6.597-16.993 16.993-16.993zM562.98 439.603h238.907v-119.353h-238.907v119.353zM85.367 507.777h136.547c10.196 0 16.993 6.797 16.993 16.993s-6.797 16.993-16.993 16.993h-136.547c-10.196 0-16.993-6.797-16.993-16.993s6.597-16.993 16.993-16.993zM290.087 507.777h136.547c10.196 0 16.993 6.797 16.993 16.993s-6.797 16.993-16.993 16.993h-136.547c-10.196 0-16.993-6.797-16.993-16.993s6.597-16.993 16.993-16.993zM85.367 439.603h221.713c10.196 0 16.993 6.797 16.993 16.993s-6.797 16.993-16.993 16.993h-221.713c-10.196 0-16.993-6.797-16.993-16.993s6.597-16.993 16.993-16.993zM426.433 473.59h-51.18c-10.196 0-16.993-6.797-16.993-16.993s6.797-16.993 16.993-16.993h51.18c10.196 0 16.993 6.797 16.993 16.993s-6.597 16.993-16.993 16.993zM1008.206 685.107c-11.995 15.394-27.389 23.791-45.982 25.59l-40.984 4.998v82.168c0 37.585-30.788 68.173-68.173 68.173h-784.893c-37.385 0-68.173-30.788-68.173-68.173v-545.987c0-30.788 20.792-56.978 48.981-65.374-0.8-34.586 25.19-64.375 60.376-67.574l788.092-88.765c1.799 0 5.198 0 6.797 0 34.187 0 64.775 25.59 68.173 57.977l51.18 547.586c1.799 16.993-3.399 35.786-15.394 49.381zM34.187 746.683h853.067v-102.36h-853.067v102.36zM68.173 831.85h784.693c18.793 0 34.187-15.394 34.187-34.187v-16.993h-852.867v16.993c0 18.793 15.194 34.187 33.987 34.187zM34.187 251.877v358.26h853.067v-358.26c0-18.793-15.394-34.187-34.187-34.187h-784.893c-18.793 0-33.987 15.394-33.987 34.187zM989.414 642.524l-51.18-547.586c-1.799-18.793-18.793-32.387-37.585-30.788l-786.293 88.765c-16.993 1.799-28.989 15.394-30.788 30.788h769.499c37.585 0 68.173 30.788 68.173 68.173v431.631l39.185-3.399c8.597 0 16.993-5.198 22.191-11.995s8.597-16.993 6.797-25.59z" />
<glyph unicode="&#xe91a;" d="M1024 448c0-280.778-227.616-508.394-508.394-508.394s-508.394 227.616-508.394 508.394c0 280.778 227.616 508.394 508.394 508.394s508.394-227.616 508.394-508.394z" />
<glyph unicode="&#xe91b;" d="M591.324 574.197v0l-137.014-169.465-10.817 97.352c0 3.606-3.606 10.817-7.211 10.817-3.606 3.606-7.211 3.606-14.423 3.606h-14.423c-3.606 0-7.211-3.606-10.817-7.211s-3.606-7.211-3.606-14.423l18.028-165.859c0-3.606 3.606-10.817 7.211-10.817 3.606-3.606 7.211-3.606 14.423-3.606l165.859 18.028c3.606 0 7.211 3.606 10.817 7.211s3.606 7.211 3.606 10.817v14.423c0 3.606-3.606 7.211-7.211 10.817-7.211 7.211-10.817 7.211-14.423 7.211l-97.352-10.817 137.014 169.465c7.211 7.211 3.606 18.028-3.606 25.239l-10.817 10.817c-7.211 7.211-18.028 3.606-25.239-3.606z" />
<glyph unicode="&#xe91c;" glyph-name="4" d="M1024 695.553c0 63.44-51.717 115.502-115.502 115.502h-792.997c-63.785 0-115.502-51.717-115.502-115.502v-495.106c0-63.44 51.717-115.502 115.502-115.502h793.341c63.44 0 115.502 51.717 115.502 115.502l-0.345 495.106zM115.502 741.064h793.341c25.169 0 45.511-20.342 45.511-45.511v-63.44h-884.364v63.44c0 25.169 20.342 45.511 45.511 45.511zM954.009 453.172h-884.019v108.951h884.364l-0.345-108.951zM908.498 154.936h-792.997c-25.169 0-45.511 20.342-45.511 45.511v182.734h884.364v-182.734c-0.345-25.169-20.687-45.511-45.856-45.511zM392.706 274.23h-238.589c-19.308 0-34.823-15.515-34.823-34.823s15.515-34.823 34.823-34.823h238.589c19.308 0 34.823 15.515 34.823 34.823s-15.515 34.823-34.823 34.823zM571.647 274.23h-59.647c-19.308 0-34.823-15.515-34.823-34.823s15.515-34.823 34.823-34.823h59.647c19.308 0 34.823 15.515 34.823 34.823s-15.515 34.823-34.823 34.823z" />
<glyph unicode="&#xe91d;" glyph-name="card-logo" d="M998.97 832.607c-16.625 16.625-36.798 25.030-60.334 25.030h-853.271c-23.536 0-43.523-8.406-60.334-25.030-16.625-16.811-25.030-36.798-25.030-60.334v-648.546c0-23.536 8.406-43.523 25.030-60.334 16.811-16.625 36.798-25.030 60.334-25.030h853.271c23.536 0 43.523 8.406 60.334 25.030 16.625 16.625 25.030 36.798 25.030 60.334v648.546c0 23.536-8.406 43.523-25.030 60.334zM955.634 123.727c0-4.67-1.681-8.592-5.043-11.955s-7.285-5.043-11.955-5.043h-853.271c-4.67 0-8.592 1.681-11.955 5.043s-5.043 7.285-5.043 11.955v324.273h887.454l-0.187-324.273zM955.634 652.912h-887.454v119.548c0 4.67 1.681 8.592 5.043 11.955s7.472 5.043 11.955 5.043h853.271c4.67 0 8.592-1.681 11.955-5.043s5.043-7.285 5.043-11.955l0.187-119.548zM136.546 243.275h136.546v-68.179h-136.546v68.179zM341.271 243.275h204.725v-68.179h-204.725v68.179z" />
<glyph unicode="&#xe91e;" glyph-name="copy" d="M948.090 960h-565.871c-40.292 0-73.238-32.723-73.238-73.238v-171.631h66.783v171.631c0 3.562 2.894 6.456 6.456 6.456h566.094c3.562 0 6.456-2.894 6.456-6.456v-566.094c0-3.562-2.894-6.456-6.456-6.456h-166.289v-66.783h166.289c40.292 0 73.238 32.723 73.238 73.238v566.094c-0.223 40.515-32.946 73.238-73.461 73.238zM641.781 648.348h-565.871c-40.292 0-73.238-32.723-73.238-73.238v-566.094c0-40.292 32.723-73.238 73.238-73.238h566.094c40.292 0 73.238 32.723 73.238 73.238v566.094c-0.223 40.515-32.946 73.238-73.461 73.238zM641.781 2.783h-565.871c-3.562 0-6.456 2.894-6.456 6.456v565.871c0 3.562 2.894 6.456 6.456 6.456h566.094c3.562 0 6.456-2.894 6.456-6.456v-566.094c-0.223-3.339-3.117-6.233-6.678-6.233z" />
<glyph unicode="&#xe91f;" horiz-adv-x="1028" d="M1024 448c0-282.77-229.23-512-512-512s-512 229.23-512 512c0 282.77 229.23 512 512 512s512-229.23 512-512z" />
<glyph unicode="&#xe920;" horiz-adv-x="1028" d="M424.851 313.645v0l163.404 148.879-7.262-101.674c0-3.631 0-10.894 3.631-14.525s7.262-7.262 10.894-7.262h14.525c3.631 0 10.894 0 14.525 3.631s7.262 7.262 7.262 10.894l7.262 167.035c0 3.631 0 10.894-3.631 14.525s-7.262 7.262-10.894 7.262l-167.035 7.262c-3.631 0-10.894 0-14.525-3.631s-7.262-7.262-7.262-10.894v-14.525c0-3.631 0-10.894 3.631-14.525s7.262-7.262 10.894-7.262l98.043-3.631-163.404-148.879c-7.262-7.262-7.262-18.156 0-25.418l10.894-10.894c7.262-3.631 21.787-3.631 29.050 3.631z" />
<glyph unicode="&#xe921;" d="M1024 448c0-282.77-229.23-512-512-512s-512 229.23-512 512c0 282.77 229.23 512 512 512s512-229.23 512-512z" />
<glyph unicode="&#xe922;" d="M251.918 637.324l68.741 68.741 444.524-444.524-68.741-68.741-444.524 444.524z" />
<glyph unicode="&#xe923;" d="M257.344 256.362l444.524 444.524 68.741-68.741-444.524-444.524-68.741 68.741z" />
<glyph unicode="&#xe924;" glyph-name="user" d="M927.8 206c-58.2 56.2-134 88-214.6 89.8v93.6c39.2 46.8 60.8 105.6 60.8 167.4v142.2c-0.2 144-117.2 261-261 261s-260.8-117-260.8-260.8v-142.2c0-61.6 21.4-120.4 60.8-167.4v-93.6c-80.6-2-156.6-33.8-214.6-89.8-14.2-13.6-16.2-35.6-5-51.8 95.8-136.8 252.8-218.4 419.6-218.4s323.8 81.6 419.8 218.2c11.2 16.2 9.2 38.2-5 51.8zM332.2 699.2c0 99.8 81.2 180.8 180.8 180.8 99.8 0 180.8-81.2 180.8-180.8v-142.2c0-46.6-17.8-91-49.8-124.6-34.4-36.4-81-56.4-131-56.4s-96.6 20-131 56.2c-32.2 33.8-49.8 78-49.8 124.8v142.2zM513 16c-128.6 0-250.2 57.4-332 155.2 40.6 29 89 44.8 139.8 44.8h32c22 0 40 18 40 40v69.2c36.6-19 77.6-29.2 120.2-29.2s83.6 10 120.2 29.2v-69.2c0-22 18-40 40-40h32c50.8 0 99.2-15.8 139.8-44.8-81.8-97.8-203.4-155.2-332-155.2z" />
<glyph unicode="&#xe925;" glyph-name="setting" d="M971.591 555.491l-71.875 12.193c-7.487 24.172-17.113 47.489-28.878 69.736l42.355 59.254c17.969 25.242 15.188 59.682-6.845 81.501l-63.746 63.746c-11.979 11.979-27.809 18.61-44.708 18.61-13.263 0-25.883-4.064-36.579-11.765l-59.468-42.355c-23.103 12.193-47.275 22.247-72.302 29.734l-11.979 71.019c-5.134 30.59-31.445 52.836-62.463 52.836h-90.057c-31.017 0-57.329-22.247-62.463-52.836l-12.407-72.73c-23.958-7.487-47.275-17.327-69.522-29.306l-58.826 42.355c-10.696 7.701-23.53 11.765-36.793 11.765-16.899 0-32.943-6.631-44.708-18.61l-63.96-63.746c-21.819-21.819-24.814-56.259-6.845-81.501l42.783-60.109c-11.765-22.461-21.177-45.777-28.45-69.949l-71.019-11.979c-30.59-5.134-52.836-31.445-52.836-62.463v-90.057c0-31.017 22.247-57.329 52.836-62.463l72.73-12.407c7.487-23.958 17.327-47.275 29.306-69.522l-42.141-58.612c-17.969-25.242-15.188-59.682 6.845-81.501l63.746-63.746c11.979-11.979 27.809-18.61 44.708-18.61 13.263 0 25.883 4.064 36.579 11.765l60.109 42.783c21.605-11.337 44.28-20.536 67.596-27.809l11.979-71.875c5.134-30.59 31.445-52.836 62.463-52.836h90.271c31.017 0 57.329 22.247 62.463 52.836l12.193 71.875c24.172 7.487 47.489 17.113 69.736 28.878l59.254-42.355c10.696-7.701 23.53-11.765 36.793-11.765v0c16.899 0 32.729 6.631 44.708 18.61l63.746 63.746c21.819 21.819 24.814 56.259 6.845 81.501l-42.355 59.468c11.765 22.461 21.605 45.777 28.878 69.736l71.875 11.979c30.59 5.134 52.836 31.445 52.836 62.463v90.057c0.428 31.017-21.819 57.329-52.409 62.463zM966.671 402.971c0-2.781-1.925-5.134-4.706-5.562l-89.843-14.974c-11.337-1.925-20.322-10.268-23.103-21.177-8.129-31.445-20.536-61.607-37.221-89.629-5.776-9.84-5.348-22.033 1.283-31.445l52.836-74.442c1.497-2.139 1.283-5.348-0.642-7.273l-63.746-63.746c-1.497-1.497-2.995-1.711-4.064-1.711-1.283 0-2.353 0.428-3.209 1.070l-74.228 52.836c-9.198 6.631-21.605 7.059-31.445 1.283-28.023-16.685-58.184-29.092-89.629-37.221-11.123-2.781-19.466-11.979-21.177-23.103l-15.188-89.843c-0.428-2.781-2.781-4.706-5.562-4.706h-90.057c-2.781 0-5.134 1.925-5.562 4.706l-14.974 89.843c-1.925 11.337-10.268 20.322-21.177 23.103-30.59 7.915-60.109 20.108-87.704 35.937-4.492 2.567-9.626 3.85-14.546 3.85-5.776 0-11.765-1.711-16.685-5.348l-74.869-53.264c-1.070-0.642-2.139-1.070-3.209-1.070-0.856 0-2.567 0.214-4.064 1.711l-63.746 63.746c-1.925 1.925-2.139 4.92-0.642 7.273l52.623 73.8c6.631 9.412 7.059 21.819 1.283 31.659-16.685 27.809-29.52 57.97-37.649 89.416-2.995 10.91-11.979 19.252-23.103 21.177l-90.485 15.402c-2.781 0.428-4.706 2.781-4.706 5.562v90.057c0 2.781 1.925 5.134 4.706 5.562l89.202 14.974c11.337 1.925 20.536 10.268 23.316 21.391 7.915 31.445 20.108 61.821 36.579 89.843 5.776 9.84 5.134 22.033-1.497 31.231l-53.264 74.869c-1.497 2.139-1.283 5.348 0.642 7.273l63.746 63.746c1.497 1.497 2.995 1.711 4.064 1.711 1.283 0 2.353-0.428 3.209-1.070l73.8-52.623c9.412-6.631 21.819-7.059 31.659-1.283 27.809 16.685 57.97 29.52 89.416 37.649 10.91 2.995 19.252 11.979 21.177 23.103l15.402 90.485c0.428 2.781 2.781 4.706 5.562 4.706h90.057c2.781 0 5.134-1.925 5.562-4.706l14.974-89.202c1.925-11.337 10.268-20.536 21.391-23.316 32.301-8.129 63.104-20.75 91.769-37.649 9.84-5.776 22.033-5.348 31.445 1.283l73.8 53.050c1.070 0.642 2.139 1.070 3.209 1.070 0.856 0 2.567-0.214 4.064-1.711l63.746-63.746c1.925-1.925 2.139-4.92 0.642-7.273l-52.836-74.228c-6.631-9.198-7.059-21.605-1.283-31.445 16.685-28.023 29.092-58.184 37.221-89.629 2.781-11.123 11.979-19.466 23.103-21.177l89.843-15.188c2.781-0.428 4.706-2.781 4.706-5.562l-0.214-90.057zM512.107 669.079c-121.93 0-220.972-99.042-220.972-220.972s99.042-220.972 220.972-220.972 220.972 99.042 220.972 220.972-99.042 220.972-220.972 220.972zM512.107 284.892c-90.057 0-163.215 73.158-163.215 163.215s73.158 163.215 163.215 163.215 163.215-73.158 163.215-163.215-73.158-163.215-163.215-163.215z" />
<glyph unicode="&#xe926;" horiz-adv-x="1028" d="M1027.631 448c0-282.77-229.23-512-512-512s-512 229.23-512 512c0 282.77 229.23 512 512 512s512-229.23 512-512z" />
<glyph unicode="&#xe927;" horiz-adv-x="1028" d="M432.113 509.73v0l148.879 134.355-3.631-90.78c0-3.631 0-7.262 3.631-10.894s7.262-3.631 10.894-7.262h14.525c3.631 0 7.262 0 10.894 3.631s3.631 7.262 7.262 10.894l10.894 156.142c0 3.631 0 7.262-3.631 10.894s-7.262 3.631-10.894 7.262l-152.511 7.262c-3.631 0-7.262 0-10.894-3.631s-3.631-7.262-7.262-10.894v-14.525c0-3.631 0-7.262 3.631-10.894s7.262-3.631 10.894-3.631l90.78-3.631-148.879-134.355c-7.262-7.262-7.262-18.156 0-25.418l10.894-10.894c0-7.262 7.262-7.262 14.525-3.631z" />
<glyph unicode="&#xe928;" horiz-adv-x="1028" d="M591.887 400.794v0l-127.092-156.142-10.894 90.78c0 3.631-3.631 7.262-7.262 10.894s-7.262 3.631-10.894 3.631h-14.525c-3.631 0-7.262-3.631-10.894-7.262s-3.631-7.262-3.631-10.894l14.525-152.511c0-3.631 3.631-7.262 7.262-10.894 7.262-7.262 10.894-7.262 18.156-7.262l152.511 14.525c3.631 0 7.262 3.631 10.894 7.262s3.631 7.262 3.631 10.894v14.525c0 3.631-3.631 7.262-7.262 10.894s-7.262 3.631-10.894 3.631l-90.78-10.894 127.092 156.142c7.262 7.262 3.631 18.156-3.631 25.418l-10.894 10.894c-7.262 3.631-18.156 3.631-25.418-3.631z" />
<glyph unicode="&#xe929;" glyph-name="transf" d="M213.333 960h170.667v-170.667h-170.667v170.667zM640 960h170.667v-170.667h-170.667v170.667zM213.333 533.333h170.667v-170.667h-170.667v170.667zM640 533.333h170.667v-170.667h-170.667v170.667zM213.333 98.133h170.667v-170.667h-170.667v170.667zM640 98.133h170.667v-170.667h-170.667v170.667z" />
<glyph unicode="&#xe92a;" glyph-name="circle-plus" horiz-adv-x="1028" d="M513.822 956.356c-280.598 0-510.178-229.58-510.178-510.178s229.58-510.178 510.178-510.178 510.178 229.58 510.178 510.178-229.58 510.178-510.178 510.178zM513.822-12.982c-255.089 0-462.804 207.715-462.804 462.804s207.715 459.16 462.804 459.16 462.804-204.071 462.804-459.16-207.715-462.804-462.804-462.804zM532.043 661.181h-47.374v-196.783h-189.495v-47.374h189.495v-185.851h47.374v185.851h200.427v47.374h-200.427z" />
<glyph unicode="&#xe92b;" glyph-name="find" d="M989.867 27.621l-242.526 253.305c62.877 75.453 97.011 168.87 97.011 265.881 0 228.154-185.039 413.193-413.193 413.193s-413.193-185.039-413.193-413.193 185.039-413.193 413.193-413.193c86.232 0 167.074 25.151 237.137 75.453l244.323-255.102c10.779-10.779 23.354-16.168 39.523-16.168 14.372 0 26.947 5.389 37.726 14.372 21.558 19.761 21.558 53.895 0 75.453zM431.158 852.211c168.87 0 305.404-136.533 305.404-305.404s-136.533-305.404-305.404-305.404-305.404 136.533-305.404 305.404 136.533 305.404 305.404 305.404z" />
<glyph unicode="&#xe92c;" glyph-name="deposit" d="M947.2 492.8v-243.2c-121.6-25.6-217.6-128-243.2-249.6h-422.4c-19.2 121.6-108.8 217.6-230.4 249.6v243.2h-51.2v-544h992v544h-44.8zM51.2 192c89.6-25.6 160-102.4 179.2-192h-179.2v192zM755.2 0c19.2 96 96 172.8 185.6 198.4v-198.4h-185.6zM473.6 851.2v-672h51.2v672l217.6-217.6 38.4 32-256 262.4h-51.2l-268.8-281.6 38.4-32z" />
<glyph unicode="&#xe92d;" glyph-name="deposit-card" d="M976.877 823.027h-929.999c-25.881 0-46.878-20.998-46.878-47.123v-655.809c0-25.881 20.998-46.878 46.878-46.878h929.999c25.881 0 46.878 20.998 46.878 46.878v655.809c0.244 26.125-20.753 47.123-46.878 47.123zM946.358 150.615h-868.715v326.684h868.959l-0.244-326.684zM946.358 637.467h-868.715v107.918h868.959l-0.244-107.918zM668.261 210.434c23.439 0 44.681 10.010 59.086 26.125 14.649-16.114 35.647-26.125 59.086-26.125 44.193 0 80.084 35.891 80.084 80.084s-35.891 80.084-80.084 80.084c-23.439 0-44.681-10.010-59.086-26.125-14.649 16.114-35.647 26.125-59.086 26.125-44.193 0-80.084-35.891-80.084-80.084 0-44.437 35.891-80.084 80.084-80.084z" />
<glyph unicode="&#xe92e;" glyph-name="potrfolio" d="M960.084 735.958h-192.084v96.042c0 35.305-28.612 64.084-64.084 64.084h-383.833c-35.305 0-64.084-28.612-64.084-64.084v-96.042h-191.916c-35.472 0-64.084-28.612-64.084-63.916v-608.042c0-35.305 28.612-64.084 64.084-64.084h896c35.305 0 64.084 28.612 64.084 64.084v608.042c-0.167 35.305-28.779 63.916-64.084 63.916zM352.042 800.042h320.084v-64.084h-320.084v64.084zM927.958 95.958h-831.916v256h320.084v-31.958h192.084v31.958h320.084v-256zM927.958 448h-319.916v31.958h-192.084v-31.958h-319.916v191.916h832.084v-191.916z" />
<glyph unicode="&#xe92f;" glyph-name="print" d="M83.349 126.512h181.78v-107.163c0-18.257 14.288-32.546 32.546-32.546h428.651c18.257 0 32.546 14.288 32.546 32.546v107.163h181.78c18.257 0 32.546 14.288 32.546 32.546v577.885c0 18.257-14.288 32.546-32.546 32.546h-181.78v107.163c0 18.257-14.288 32.546-32.546 32.546h-428.651c-18.257 0-32.546-14.288-32.546-32.546v-107.163h-181.78c-18.257 0-32.546-14.288-32.546-32.546v-577.885c0-17.464 15.082-32.546 32.546-32.546zM693.78 51.895h-363.56v268.304h363.56c0 0 0-268.304 0-268.304zM330.22 844.105h363.56v-74.617h-363.56v74.617zM115.895 704.397h792.211v-512.794h-149.234v128.595h57.947c18.257 0 32.546 14.288 32.546 32.546s-14.288 32.546-32.546 32.546h-608.843c-18.257 0-32.546-14.288-32.546-32.546s14.288-32.546 32.546-32.546h57.947v-128.595h-150.028c0 0 0 512.794 0 512.794zM684.254 536.905h84.143c18.257 0 32.546 14.288 32.546 32.546s-14.288 32.546-32.546 32.546h-84.143c-18.257 0-32.546-14.288-32.546-32.546s14.288-32.546 32.546-32.546z" />
<glyph unicode="&#xe930;" glyph-name="download" d="M659.11 780.91h-476.035c-44.668 0-80.947-36.279-80.947-80.947v-683.016c0-44.668 36.279-80.947 80.947-80.947h476.035c44.668 0 80.947 36.279 80.947 80.947v683.016c-0.21 44.668-36.489 80.947-80.947 80.947zM683.226 17.157c0-13.421-10.905-24.326-24.326-24.326h-476.035c-13.421 0-24.326 10.905-24.326 24.326v682.806c0 13.421 10.905 24.326 24.326 24.326h476.035c13.421 0 24.326-10.905 24.326-24.326v-682.806zM840.926 960h-476.035c-44.668 0-80.947-36.279-80.947-80.947 0-15.728 12.582-28.31 28.31-28.31s28.31 12.582 28.31 28.31c0 13.421 10.905 24.326 24.326 24.326h476.035c13.421 0 24.326-10.905 24.326-24.326v-683.016c0-13.421-10.905-24.326-24.326-24.326-15.728 0-28.31-12.582-28.31-28.31s12.582-28.31 28.31-28.31c44.668 0 80.947 36.279 80.947 80.947v683.016c0 44.668-36.070 80.947-80.947 80.947z" />
<glyph unicode="&#xe933;" glyph-name="down-arrow" d="M789.138 335.266c18.789 18.789 51.67 18.789 75.156 0 18.789-18.789 18.789-51.67 0-75.156l-310.018-314.716c-9.394-9.394-23.486-14.092-37.578-14.092s-28.183 4.697-37.578 14.092l-314.716 314.716c-18.789 18.789-18.789 51.67 0 75.156s51.67 18.789 75.156 0l220.771-220.771v793.835c0 28.183 23.486 51.67 51.67 51.67s51.67-23.486 51.67-51.67v-793.835l225.468 220.771z" />
<glyph unicode="&#xe934;" glyph-name="wallet" d="M682.667 234.642c46.881 0 85.383 38.303 85.383 85.383 0 46.881-38.303 85.383-85.383 85.383s-85.383-38.303-85.383-85.383c0-47.080 38.502-85.383 85.383-85.383zM170.766 661.358c-46.881 0-85.383 38.303-85.383 85.383s38.303 85.184 85.383 85.184h682.667v-85.383h85.383v170.766h-768.050c-93.961 0-170.766-76.805-170.766-170.567v-554.592c0-119.497 93.961-213.259 213.259-213.259h810.741v682.467h-853.234zM938.617 63.875h-725.358c-72.616 0-128.075 55.459-128.075 128.075v409.56c25.535-17.156 55.459-25.535 85.383-25.535h768.050v-512.1z" />
<glyph unicode="&#xe935;" glyph-name="g-accept" d="M1017.307 444.654c0-280.922-227.732-508.654-508.654-508.654s-508.654 227.732-508.654 508.654c0 280.922 227.732 508.654 508.654 508.654s508.654-227.732 508.654-508.654z" />
<glyph unicode="&#xe936;" glyph-name="g-r-u-arrow" horiz-adv-x="1010" d="M170.667-35.556v0l625.778 640v-398.222c0-14.222 14.222-42.667 28.444-56.889s28.444-14.222 56.889-14.222h56.889c14.222 0 42.667 14.222 56.889 28.444s14.222 28.444 14.222 56.889v682.667c0 14.222-14.222 42.667-28.444 56.889-14.222-14.222-28.444 0-56.889 0h-682.667c-14.222 0-42.667-14.222-56.889-28.444 0-14.222-14.222-28.444-14.222-56.889v-56.889c0-14.222 14.222-42.667 28.444-56.889s28.444-14.222 56.889-14.222h398.222l-625.778-640c-28.444-28.444-28.444-71.111 0-99.556l42.667-42.667c28.444-28.444 71.111-28.444 99.556 0z" />
<glyph unicode="&#xe937;" glyph-name="r-r-d-arrow" horiz-adv-x="1010" d="M28.444 789.333v0l625.778-640h-398.222c-14.222 0-42.667-14.222-56.889-14.222-14.222-14.222-28.444-28.444-28.444-56.889v-56.889c0-14.222 14.222-42.667 14.222-56.889 14.222-14.222 28.444-28.444 56.889-28.444l682.667-14.222c14.222 0 42.667 14.222 56.889 14.222 14.222 42.667 28.444 56.889 28.444 71.111l14.222 682.667c0 14.222-14.222 42.667-14.222 56.889-28.444 14.222-56.889 14.222-71.111 14.222h-56.889c-28.444 0-42.667 0-56.889-14.222s-14.222-28.444-14.222-56.889v-398.222l-640 640c-28.444 28.444-71.111 28.444-99.556 0l-42.667-42.667c-28.444-28.444-28.444-71.111 0-99.556z" />
<glyph unicode="&#xe938;" glyph-name="pay-method" d="M1024 695.553c0 63.44-51.717 115.502-115.502 115.502h-792.997c-63.785 0-115.502-51.717-115.502-115.502v-495.106c0-63.44 51.717-115.502 115.502-115.502h793.341c63.44 0 115.502 51.717 115.502 115.502l-0.345 495.106zM115.502 741.064h793.341c25.169 0 45.511-20.342 45.511-45.511v-63.44h-884.364v63.44c0 25.169 20.342 45.511 45.511 45.511zM954.009 453.172h-884.019v108.951h884.364l-0.345-108.951zM908.498 154.936h-792.997c-25.169 0-45.511 20.342-45.511 45.511v182.734h884.364v-182.734c-0.345-25.169-20.687-45.511-45.856-45.511zM392.706 274.23h-238.589c-19.308 0-34.823-15.515-34.823-34.823s15.515-34.823 34.823-34.823h238.589c19.308 0 34.823 15.515 34.823 34.823s-15.515 34.823-34.823 34.823zM571.647 274.23h-59.647c-19.308 0-34.823-15.515-34.823-34.823s15.515-34.823 34.823-34.823h59.647c19.308 0 34.823 15.515 34.823 34.823s-15.515 34.823-34.823 34.823z" />
<glyph unicode="&#xe93a;" glyph-name="museum" d="M29.455 677.23c-0.347-2.079-0.52-4.158-0.693-6.064v-42.104c0-17.327 10.916-32.92 27.029-38.985v-62.029c0-20.792 16.46-37.772 37.079-38.812v-357.967c-20.792-1.040-37.079-18.020-37.079-38.812v-61.856c-16.287-6.238-27.029-21.831-27.029-39.331v-41.237c0-7.624 6.238-13.861 13.861-13.861h938.407c7.624 0 13.861 6.238 13.861 13.861v41.41c0 17.5-10.742 33.094-27.029 39.331v62.202c0 20.792-16.46 37.772-37.079 38.812v357.447c20.792 1.040 37.079 18.020 37.079 38.812v62.029c16.287 6.064 27.029 21.658 27.029 38.985v41.757c0 2.079-0.347 4.158-0.693 6.064 6.931-3.119 15.247 0 18.193 7.104 3.119 6.931 0 15.247-7.104 18.193l-486.876 256.26c-3.985 2.079-9.010 2.079-12.995 0l-487.223-255.913c-6.757-3.639-9.356-11.955-5.891-18.886 3.292-6.064 10.742-8.837 17.153-6.411zM83.861 565.821v21.485h160.444v-21.312l-160.444-0.173zM441.134 489.237v-357.967c-20.792-1.040-37.079-18.020-37.079-38.812v-59.257h-132.028v59.257c0 20.792-16.46 37.772-37.079 38.812v357.967c20.792 1.040 37.079 18.020 37.079 38.812v59.257h131.855v-59.257c0-20.792 16.287-37.945 37.079-38.812h0.173zM431.778 565.821v21.485h160.444v-21.312l-160.444-0.173zM789.225 489.237v-357.967c-20.792-1.040-37.079-18.020-37.079-38.812v-59.257h-132.028v59.257c0 20.792-16.46 37.772-37.079 38.812v357.967c20.792 1.040 37.079 18.020 37.079 38.812v59.257h131.855v-59.257c0-20.792 16.287-37.945 37.079-38.812h0.173zM779.869 565.821v21.485h160.444v-21.312l-160.444-0.173zM940.313 54.514v-21.312h-160.617v21.312h160.617zM592.395 54.514v-21.312h-160.617v21.312h160.617zM454.822 516.786h-12.129c-6.064 0-11.089 5.025-11.089 11.089v10.049h160.444v-10.049c0-6.064-5.025-11.089-11.089-11.089h-126.137zM555.143 489.064v-357.447h-86.286v357.447h86.286zM454.822 103.721h126.137c6.064 0 11.089-5.025 11.089-11.089v-10.049h-160.444v10.049c0 6.064 5.025 11.089 11.089 11.089h12.129zM244.131 54.514v-21.312h-160.444v21.312h160.444zM83.687 527.702v10.396h160.444v-10.049c0-6.064-5.025-11.089-11.089-11.089h-138.613c-6.064 0.173-10.916 5.198-10.916 11.262v-0.52zM207.052 488.717v-357.274h-86.286v357.62l86.286-0.347zM83.687 92.286c0 6.238 5.025 11.089 11.089 11.089h138.266c6.238 0 11.089-5.025 11.089-11.089v-10.049h-160.444v10.049zM967.342-9.075v-27.203h-910.858v27.203c0 7.97 6.411 14.381 14.381 14.381h881.922c7.797 0 14.208-6.238 14.381-14.035v-0.347zM940.139 92.286v-10.049h-160.444v10.049c0 6.238 5.025 11.089 11.089 11.089h138.439c5.891-0.173 10.742-4.851 10.916-10.916v-0.173zM816.774 131.27v357.794h86.286v-357.447l-86.286-0.347zM940.139 527.702c0-6.064-5.025-11.089-11.089-11.089h-138.093c-6.064 0-11.089 5.025-11.089 11.089v10.396h160.444l-0.173-10.396zM512 930.545l414.451-217.795h-828.903l414.451 217.795zM56.485 670.82c0 7.624 6.238 13.861 13.861 13.861h882.962c7.624 0 13.861-6.238 13.861-13.861v-42.104c0-7.624-6.238-13.861-13.861-13.861h-882.788c-7.624 0-13.861 6.238-13.861 13.861v42.104z" />
<glyph unicode="&#xe93b;" glyph-name="bitcoin" d="M644 528c0 53-43 96-96 96h-24v36c0 8.8-7.2 16-16 16s-16-7.2-16-16v-36h-28v36c0 8.8-7.2 16-16 16s-16-7.2-16-16v-36h-36c-8.8 0-16-7.2-16-16s7.2-16 16-16h24v-288h-24c-8.8 0-16-7.2-16-16s7.2-16 16-16h36v-36c0-8.8 7.2-16 16-16s16 7.2 16 16v36h28v-36c0-8.8 7.2-16 16-16s16 7.2 16 16v36h24c53 0 96 43 96 96 0 32.2-16.2 62.2-43 80 26.8 17.8 43 47.8 43 80zM612 368c0-35.4-28.6-64-64-64h-96v128h96c35.4 0 64-28.6 64-64zM548 464h-96v128h96c35.4 0 64-28.6 64-64s-28.6-64-64-64zM512 771.4c-178.4 0-323.6-145.2-323.6-323.6s145.2-323.4 323.6-323.4 323.6 145.2 323.6 323.6-145.2 323.4-323.6 323.4zM512 156.4c-160.8 0-291.6 130.8-291.6 291.6s130.8 291.4 291.6 291.4 291.6-130.6 291.6-291.4-130.8-291.6-291.6-291.6zM512 872.2c-234 0-424.2-190.2-424.2-424.2s190.2-424.2 424.2-424.2 424.2 190.2 424.2 424.2-190.2 424.2-424.2 424.2zM512 55.8c-216.2 0-392.2 176-392.2 392.2s176 392.2 392.2 392.2 392.2-176 392.2-392.2-176-392.2-392.2-392.2z" />
<glyph unicode="&#xe93c;" glyph-name="verif-user" horiz-adv-x="699" d="M187.493 679.482c-1.442 5.769-7.211 8.654-12.98 7.932l-47.594-12.259c-5.769-1.442-8.654-7.211-7.932-12.98 1.442-5.048 5.769-7.932 10.096-7.932 0.721 0 1.442 0 2.885 0l47.594 12.259c5.769 1.442 9.375 7.211 7.932 12.98zM263.932 666.501l47.594-12.259c0.721 0 1.442 0 2.885 0 4.327 0 8.654 2.885 10.096 7.932 1.442 5.769-2.163 11.538-7.932 12.98l-47.594 12.259c-5.769 1.442-11.538-2.163-12.98-7.932s2.163-11.538 7.932-12.98zM149.273 631.166v-11.538c0-5.769 5.048-10.817 10.817-10.817s10.817 5.048 10.817 10.817v11.538c0 5.769-5.048 10.817-10.817 10.817-6.49 0-10.817-5.048-10.817-10.817zM284.124 641.983c-5.769 0-10.817-5.048-10.817-10.817v-11.538c0-5.769 5.048-10.817 10.817-10.817s10.817 5.048 10.817 10.817v11.538c0 5.769-5.048 10.817-10.817 10.817zM222.107 566.986c8.654 0 17.307 3.606 24.518 10.096 4.327 4.327 4.327 10.817 0 15.144s-10.817 4.327-15.144 0c-5.048-5.048-13.701-5.048-18.749 0-4.327 4.327-10.817 4.327-15.144 0s-4.327-10.817 0-15.144c6.49-7.211 15.865-10.096 24.518-10.096zM212.011 522.997c-36.056 3.606-43.989 27.403-44.71 28.845-1.442 5.769-7.211 8.654-12.98 7.211s-8.654-7.211-7.211-12.98c0.721-1.442 12.259-38.22 62.017-43.989 0.721 0 0.721 0 1.442 0 5.048 0 10.096 4.327 10.096 9.375 0.721 5.769-3.606 10.817-8.654 11.538zM82.93 352.811l-23.076-13.701c-2.163-1.442-4.327-3.606-5.048-6.49l-18.028-69.228c-1.442-5.769 2.163-11.538 7.211-12.98 0.721 0 1.442 0 2.885 0 4.327 0 8.654 2.885 10.096 7.932l17.307 65.623 19.47 11.538c5.048 2.885 6.49 9.375 3.606 14.423-2.885 3.606-9.375 5.769-14.423 2.885zM687.955 368.676c2.885 2.885 4.327 5.769 4.327 10.096v36.056c0 7.932-6.49 13.701-13.701 13.701h-13.701c-3.606 0-6.49-1.442-8.654-2.885-2.163 2.163-5.048 2.885-8.654 2.885h-12.98c-2.885 0-5.769-0.721-7.932-2.885-2.163 1.442-5.048 2.885-7.932 2.885h-15.144c-2.163 0-4.327-0.721-6.49-2.163-2.163 1.442-4.327 2.163-6.49 2.163h-15.865c-7.211 0-12.98-5.769-12.98-12.98v-23.797h-187.493c-12.98 0-23.797-10.817-23.797-23.797v-10.096l-72.113 41.825v38.941c23.797 8.654 46.152 22.355 64.901 40.383 11.538 11.538 21.634 24.518 28.845 38.22 2.885-0.721 6.49-1.442 10.096-1.442 31.73 0 59.854 39.662 59.854 71.392 0 17.307-6.49 32.451-16.586 42.546v141.341c0 31.73-9.375 62.738-27.403 89.42-3.606 5.048-10.096 5.769-14.423 2.885-5.048-3.606-5.769-10.096-2.885-14.423 15.865-23.076 23.797-49.758 23.797-77.161v-128.361c-3.606 0.721-7.211 1.442-11.538 2.163v69.228c0 5.769-5.048 10.817-10.817 10.817s-10.817-5.048-10.817-10.817v-11.538c-41.104 2.885-188.935 18.028-264.654 100.958-0.721 0.721-2.163 1.442-2.885 2.163-4.327 2.163-9.375 1.442-12.98-2.885-25.961-31.73-40.383-71.392-40.383-112.496v-46.152c-2.885 0-5.769-0.721-8.654-1.442v172.349c0 11.538 5.048 21.634 14.423 28.124s20.192 8.654 31.008 5.048c5.769-1.442 11.538 1.442 12.98 7.211 9.375 29.566 30.287 53.363 58.411 67.065s59.854 14.423 88.699 3.606l69.949-27.403c12.98-5.048 25.239-12.259 36.056-20.913 4.327-3.606 10.817-2.885 14.423 1.442s2.885 10.817-1.442 14.423c-12.259 10.096-26.682 18.028-41.104 23.797l-70.67 27.403c-34.614 13.701-72.113 12.259-105.285-3.606-30.287-14.423-53.363-39.662-65.623-70.67-14.423 2.163-28.845-1.442-40.383-10.096-14.423-10.817-23.076-27.403-23.076-44.71v-183.166c-11.538-10.096-18.749-25.961-18.749-44.71 0-31.73 28.124-71.392 59.854-71.392 3.606 0 6.49 0.721 10.096 1.442 20.192-36.777 53.363-64.901 93.746-79.324v-38.941l-51.921-29.566c-5.048-2.885-6.49-9.375-3.606-14.423 2.163-3.606 5.769-5.048 9.375-5.048 1.442 0 3.606 0.721 5.048 1.442l10.817 6.49 12.259-59.854c0.721-3.606 2.885-6.49 6.49-7.932 1.442-0.721 2.163-0.721 3.606-0.721 2.163 0 4.327 0.721 6.49 2.163l48.315 35.335v-67.786c0-5.769 5.048-10.817 10.817-10.817s10.817 5.048 10.817 10.817v67.065l48.315-35.335c2.885-2.163 6.49-2.885 10.096-1.442s5.769 4.327 6.49 7.932l12.259 59.854 41.104-23.797v-373.544c0-12.98 10.817-23.797 23.797-23.797h297.104c12.98 0 23.797 10.817 23.797 23.797v407.437h-8.654zM388.687 561.938c2.163 7.932 8.654 21.634 15.144 21.634 5.769 0 10.817 5.048 10.817 10.817s-5.048 10.817-10.817 10.817c-4.327 0-7.211-0.721-10.817-2.163v22.355c14.423-2.163 28.124-12.98 28.124-36.056 0-20.913-20.192-50.479-38.941-50.479 0 0-0.721 0-0.721 0 2.885 6.49 5.769 14.423 7.211 23.076zM62.017 538.141c-18.749 0-38.941 29.566-38.941 50.479 0 22.355 13.701 33.893 28.124 36.056v-22.355c-2.885 1.442-6.49 2.163-10.817 2.163-6.49 0-11.538-5.048-11.538-10.817s5.048-10.817 10.817-10.817c7.211 0 13.701-15.144 15.865-23.076 0 0 0 0 0 0 2.163-7.211 4.327-15.144 6.49-21.634 0 0 0 0 0 0zM71.392 600.879v90.141c0 32.451 10.096 63.459 29.566 89.42 39.662-38.941 98.073-67.065 173.070-84.372 43.989-10.096 81.487-13.701 98.794-14.423v-80.766c0-40.383-15.865-77.882-43.989-106.727-28.124-28.124-66.344-43.989-106.727-43.989-82.93 0-150.715 67.786-150.715 150.715zM164.417 318.918l-10.096 50.479 13.701 7.932c5.048-15.144 15.865-27.403 29.566-34.614l-33.172-23.797zM222.107 358.58c-19.47 0-35.335 15.865-35.335 35.335v39.662c11.538-2.163 23.076-3.606 35.335-3.606s23.797 1.442 35.335 3.606v-38.22c0 0 0-0.721 0-0.721 0-20.192-15.865-36.056-35.335-36.056zM279.797 318.918l-33.172 24.518c14.423 6.49 25.239 19.47 29.566 34.614l13.701-7.932-10.096-51.2zM677.859 414.828v-36.056l-12.98-0.721-0.721 36.056 13.701 0.721zM646.851 414.828v-49.037h-12.98v49.037h12.98zM603.583 414.828h12.98v-60.575h-12.98v60.575zM574.738 414.828h12.98v-48.315h-12.98v48.315zM573.296 351.369h15.865c0 0 0 0 0 0 0.721-6.49 6.49-11.538 12.98-11.538h15.144c6.49 0 12.259 5.048 12.98 11.538 0.721 0 2.163-0.721 2.885-0.721h12.98c7.932 0 13.701 5.769 13.701 13.701 0.721 0 2.163-0.721 2.885-0.721h15.144v-175.234h-133.408c-12.259 0-21.634 10.096-21.634 21.634v164.417h38.22v-10.096c-0.721-7.211 5.048-12.98 12.259-12.98zM671.369-44.53h-297.104c-2.885 0-5.769 2.885-5.769 5.769v407.437c0 2.885 2.885 5.769 5.769 5.769h130.524v-164.417c0-22.355 18.028-39.662 39.662-39.662h133.408v-209.127c0-2.885-2.885-5.769-6.49-5.769zM541.566 329.014c0-3.606 2.885-6.49 6.49-6.49h100.958c3.606 0 6.49 2.885 6.49 6.49s-2.885 6.49-6.49 6.49h-100.958c-3.606 0-6.49-2.885-6.49-6.49zM649.014 289.352h-100.958c-3.606 0-6.49-2.885-6.49-6.49s2.885-6.49 6.49-6.49h100.958c3.606 0 6.49 2.885 6.49 6.49 0.721 3.606-2.163 6.49-6.49 6.49zM548.056 298.727h45.431c3.606 0 6.49 2.885 6.49 6.49s-2.885 6.49-6.49 6.49h-45.431c-3.606 0-6.49-2.885-6.49-6.49s2.885-6.49 6.49-6.49zM593.487 225.893h-45.431c-3.606 0-6.49-2.885-6.49-6.49s2.885-6.49 6.49-6.49h45.431c3.606 0 6.49 2.885 6.49 6.49s-2.885 6.49-6.49 6.49zM418.975 87.437h-15.144v-65.623h47.594v12.98h-32.451zM484.597 73.014c-15.865 0-27.403-11.538-27.403-25.961s11.538-25.961 27.403-25.961c15.865 0 27.403 11.538 27.403 25.961s-11.538 25.961-27.403 25.961zM484.597 33.352c-7.932 0-12.98 6.49-12.98 13.701 0 7.932 5.048 13.701 12.98 13.701s12.98-6.49 12.98-13.701c0-7.932-5.048-13.701-12.98-13.701zM558.152 65.803c-3.606 4.327-8.654 7.211-16.586 7.211-11.538 0-22.355-8.654-22.355-23.797s10.817-23.797 22.355-23.797c7.932 0 12.259 2.885 16.586 7.932v-2.163c0-8.654-4.327-13.701-14.423-13.701-6.49 0-11.538 1.442-17.307 4.327l-5.048-10.817c6.49-3.606 14.423-5.048 22.355-5.048 10.096 0 17.307 2.163 21.634 6.49s6.49 10.817 6.49 19.47v38.941h-14.423v-5.048zM546.614 37.679c-7.211 0-12.259 5.048-12.259 11.538 0 7.211 5.048 11.538 12.259 11.538s12.259-5.048 12.259-11.538c0-6.49-5.769-11.538-12.259-11.538zM610.073 73.014c-15.865 0-27.403-11.538-27.403-25.961s11.538-25.961 27.403-25.961c15.865 0 27.403 11.538 27.403 25.961s-11.538 25.961-27.403 25.961zM610.073 33.352c-7.932 0-12.98 6.49-12.98 13.701 0 7.932 5.048 13.701 12.98 13.701s12.98-6.49 12.98-13.701c0.721-7.932-4.327-13.701-12.98-13.701z" />
<glyph unicode="&#xe93d;" glyph-name="select-img" horiz-adv-x="1173" d="M1119.217 83.002h-935.465c-28.398 0-51.785 23.387-51.785 51.785v771.759c0 28.398 23.387 51.785 51.785 51.785h935.465c28.398 0 51.785-23.387 51.785-51.785v-773.429c-1.67-26.728-23.387-50.114-51.785-50.114zM183.752 924.92c-10.023 0-18.375-8.352-18.375-18.375v-773.429c0-10.023 8.352-18.375 18.375-18.375h935.465c10.023 0 18.375 8.352 18.375 18.375v773.429c0 10.023-8.352 18.375-18.375 18.375h-935.465zM993.931-64h-217.162c-10.023 0-16.705 6.682-16.705 16.705s6.682 16.705 16.705 16.705h215.491c10.023 0 18.375 8.352 18.375 18.375v111.922c0 10.023 6.682 16.705 16.705 16.705s16.705-6.682 16.705-16.705v-111.922c0-28.398-21.716-51.785-50.114-51.785zM671.53-64h-613.064c-28.398 0-51.785 23.387-51.785 51.785v773.429c0 28.398 23.387 51.785 51.785 51.785h90.206c10.023 0 16.705-6.682 16.705-16.705s-6.682-16.705-16.705-16.705h-90.206c-10.023 0-18.375-8.352-18.375-18.375v-773.429c0-10.023 8.352-18.375 18.375-18.375h613.064c10.023 0 16.705-6.682 16.705-16.705s-6.682-16.705-16.705-16.705zM776.77 320.209c-5.011 0-10.023 1.67-13.364 6.682l-238.878 287.321c-1.67 1.67-3.341 1.67-5.011 1.67s-3.341 0-5.011-1.67l-130.297-135.308c-6.682-6.682-16.705-6.682-23.387 0s-6.682 16.705 0 23.387l130.297 136.979c8.352 8.352 18.375 11.693 30.069 11.693s21.716-5.011 28.398-13.364l240.548-287.321c6.682-6.682 5.011-18.375-1.67-23.387-3.341-5.011-6.682-6.682-11.693-6.682zM148.672 240.026c-3.341 0-8.352 1.67-11.693 5.011-6.682 6.682-6.682 16.705 0 23.387l170.388 178.741c6.682 6.682 16.705 6.682 23.387 0s6.682-16.705 0-23.387l-170.388-178.741c-3.341-3.341-6.682-5.011-11.693-5.011zM1152.626 240.026c-5.011 0-10.023 1.67-13.364 5.011l-243.889 285.651c-1.67 3.341-5.011 3.341-6.682 3.341s-5.011 0-6.682-3.341l-147.002-140.32c-6.682-6.682-16.705-6.682-23.387 0s-6.682 16.705 0 23.387l145.331 140.32c8.352 8.352 20.046 13.364 31.739 11.693 11.693 0 23.387-6.682 31.739-15.034l245.56-285.651c6.682-6.682 5.011-16.705-1.67-23.387-3.341-1.67-6.682-1.67-11.693-1.67zM960.522 604.189c-65.148 0-118.604 53.455-118.604 118.604s53.455 118.604 118.604 118.604 118.604-53.455 118.604-118.604c-1.67-66.819-53.455-118.604-118.604-118.604zM960.522 806.316c-46.773 0-85.194-38.421-85.194-85.194s38.421-85.194 85.194-85.194 85.194 38.421 85.194 85.194c-1.67 46.773-38.421 85.194-85.194 85.194z" />
<glyph unicode="&#xe93e;" glyph-name="debit-card" horiz-adv-x="1236" d="M1159.553 775.451l-50.628 4.9v94.724c0 45.729-37.563 83.292-83.292 83.292h-940.708c-45.729 0-83.292-37.563-83.292-83.292v-677.767c0-39.196 27.764-73.493 65.327-81.659v0c-1.633-21.231 4.9-42.463 19.598-60.427s34.297-27.764 55.528-29.397l937.442-89.825c3.266 0 4.9 0 8.166 0 19.598 0 37.563 6.533 52.262 19.598 16.332 14.699 27.764 34.297 29.397 55.528l65.327 674.501c3.266 44.096-29.397 84.925-75.126 89.825zM34.297 817.914h1040.332v-138.82h-1040.332v138.82zM84.925 925.703h940.708c27.764 0 50.628-22.864 50.628-50.628v-26.131h-1041.965v26.131c0 27.764 22.864 50.628 50.628 50.628zM34.297 197.308v449.123h1040.332v-447.49c0-27.764-22.864-50.628-50.628-50.628h-939.075c-27.764 0-50.628 22.864-50.628 48.995zM1136.689 14.392c-1.633-13.065-8.166-24.498-17.965-34.297-9.799-8.166-22.864-13.065-35.93-11.432l-937.442 89.825c-13.065 1.633-24.498 8.166-34.297 17.965s-13.065 22.864-11.432 35.93v1.633h924.376c45.729 0 83.292 37.563 83.292 83.292v550.38l48.995-4.9c27.764-3.266 47.362-27.764 45.729-53.895l-65.327-674.501zM1015.834 478.214h-380.53v-235.177h382.163v235.177zM983.171 277.333h-315.203v168.217h316.836v-168.217zM73.493 520.676h197.614c9.799 0 16.332 6.533 16.332 16.332s-6.533 16.332-16.332 16.332h-197.614c-9.799 0-16.332-6.533-16.332-16.332s6.533-16.332 16.332-16.332zM333.167 520.676h194.348c9.799 0 16.332 6.533 16.332 16.332s-6.533 16.332-16.332 16.332h-194.348c-9.799 0-16.332-6.533-16.332-16.332s6.533-16.332 16.332-16.332zM390.329 452.083c0 9.799-6.533 16.332-16.332 16.332h-300.504c-9.799 0-16.332-6.533-16.332-16.332s6.533-16.332 16.332-16.332h300.504c8.166 0 16.332 8.166 16.332 16.332zM525.882 468.415h-96.357c-9.799 0-16.332-6.533-16.332-16.332s6.533-16.332 16.332-16.332h96.357c9.799 0 16.332 6.533 16.332 16.332s-6.533 16.332-16.332 16.332z" />
<glyph unicode="&#xe93f;" glyph-name="go-verif" horiz-adv-x="1475" d="M1414.266 958.21h-1349.818c-34.014 0-60.867-26.853-60.867-60.867v-900.476c0-34.014 26.853-60.867 60.867-60.867h1349.818c34.014 0 60.867 26.853 60.867 60.867v900.476c0 34.014-28.643 60.867-60.867 60.867zM1439.329-1.343c0-14.322-10.741-25.063-25.063-25.063h-1349.818c-14.322 0-25.063 10.741-25.063 25.063v898.685c0 14.322 10.741 25.063 25.063 25.063h1349.818c14.322 0 25.063-10.741 25.063-25.063v-898.685zM1319.385 256.448h-562.126c-10.741 0-17.902-7.161-17.902-17.902s7.161-17.902 17.902-17.902h562.126c10.741 0 17.902 7.161 17.902 17.902s-8.951 17.902-17.902 17.902zM1319.385 107.86h-562.126c-10.741 0-17.902-7.161-17.902-17.902s7.161-17.902 17.902-17.902h562.126c10.741 0 17.902 7.161 17.902 17.902s-8.951 17.902-17.902 17.902zM1353.399 632.392c-10.741 0-17.902-7.161-17.902-17.902 0-109.203-89.51-198.713-198.713-198.713s-198.713 89.51-198.713 198.713 89.51 198.713 198.713 198.713c25.063 0 50.126-5.371 73.399-14.322 8.951-3.58 19.692 0 23.273 10.741 3.58 8.951 0 19.692-10.741 23.273-26.853 10.741-57.287 16.112-87.72 16.112-128.895 0-234.517-105.622-234.517-234.517s105.622-234.517 234.517-234.517c128.895 0 234.517 105.622 234.517 234.517 1.79 8.951-5.371 17.902-16.112 17.902zM1029.371 627.021c-7.161 7.161-17.902 5.371-25.063-1.79s-5.371-17.902 1.79-25.063l105.622-96.671 230.937 238.098c7.161 7.161 7.161 17.902 0 25.063s-17.902 7.161-25.063 0l-207.664-211.245-80.559 71.608zM499.469 319.105c42.965 26.853 69.818 71.608 82.35 136.056 0 0 1.79 0 1.79 1.79 10.741 5.371 35.804 19.692 35.804 59.077 0 44.755-25.063 57.287-37.594 64.448 0 0-1.79 0-1.79 1.79-26.853 93.091-102.042 152.168-193.343 152.168-28.643 0-57.287-7.161-82.35-19.692-5.371 1.79-14.322 10.741-21.483 23.273-3.58 5.371-5.371 12.531-7.161 17.902-7.161 12.531-10.741 26.853-25.063 30.434-8.951 1.79-17.902-1.79-26.853-12.531-25.063-30.434-16.112-76.979-8.951-110.993 1.79-8.951 3.58-19.692 3.58-23.273-12.531-19.692-16.112-35.804-19.692-55.497l-1.79-8.951c-1.79-1.79-3.58-1.79-5.371-3.58-10.741-7.161-30.434-21.483-32.224-53.706-1.79-37.594 19.692-53.706 32.224-64.448 1.79-1.79 5.371-3.58 7.161-5.371 10.741-44.755 28.643-98.462 76.979-130.685-109.203-39.385-139.636-141.427-139.636-202.294v-16.112l16.112-1.79c3.58 0 82.35-7.161 241.678-7.161h50.126c12.531 0 25.063 0 37.594 0 148.587 0 148.587 0 157.538 8.951l5.371 7.161v7.161c-8.951 100.252-64.448 177.231-145.007 205.874zM445.762 125.762h-50.126c-116.364 0-189.762 3.58-221.986 5.371 5.371 42.965 30.434 146.797 164.699 162.909 0 0 0 0 1.79 0 8.951 0 16.112 7.161 17.902 14.322 1.79 8.951-5.371 19.692-14.322 19.692-59.077 8.951-91.301 46.545-109.203 125.315-1.79 10.741-10.741 17.902-19.692 25.063-10.741 8.951-19.692 16.112-19.692 34.014 1.79 16.112 7.161 19.692 16.112 26.853 7.161 5.371 16.112 10.741 19.692 23.273l1.79 10.741c3.58 19.692 5.371 28.643 16.112 44.755 7.161 10.741 5.371 25.063 0 48.336-3.58 17.902-8.951 42.965-5.371 60.867 1.79-3.58 3.58-7.161 5.371-10.741 16.112-26.853 44.755-50.126 66.238-39.385s46.545 16.112 69.818 16.112c76.979 0 139.636-50.126 161.119-130.685 3.58-10.741 12.531-16.112 19.692-19.692 10.741-5.371 17.902-8.951 17.902-32.224 0-17.902-7.161-21.483-16.112-26.853-7.161-3.58-17.902-8.951-19.692-21.483-14.322-76.979-50.126-119.944-109.203-134.266 0 0 0 0 0 0-1.79 0-1.79-1.79-3.58-1.79s-1.79-1.79-3.58-1.79c0 0-1.79-1.79-1.79-1.79 0-1.79-1.79-1.79-1.79-3.58 0 0 0-1.79-1.79-3.58 0-1.79-1.79-1.79-1.79-3.58 0 0 0 0 0 0 0-1.79 0-1.79 0-3.58s0-1.79 0-3.58c0 0 0 0 0 0 0-1.79 1.79-1.79 1.79-3.58s0-1.79 1.79-3.58c0 0 1.79-1.79 1.79-1.79s1.79-1.79 3.58-1.79c0 0 1.79 0 3.58-1.79 1.79 0 1.79-1.79 3.58-1.79 0 0 0 0 0 0 87.72-8.951 152.168-75.189 166.49-170.070-25.063 5.371-84.14 5.371-161.119 5.371z" />
<glyph unicode="&#xe940;" glyph-name="percent" horiz-adv-x="980" d="M224.78 510.439c-118.634 0-218.537 99.902-218.537 218.537s99.902 218.537 218.537 218.537 218.537-99.902 218.537-218.537-93.659-218.537-218.537-218.537zM224.78 872.585c-74.927 0-137.366-62.439-137.366-137.366s62.439-137.366 137.366-137.366 137.366 62.439 137.366 137.366-62.439 137.366-137.366 137.366zM755.512-57.756c-118.634 0-218.537 99.902-218.537 218.537s99.902 218.537 218.537 218.537 218.537-99.902 218.537-218.537-93.659-218.537-218.537-218.537zM755.512 298.146c-74.927 0-137.366-62.439-137.366-137.366s62.439-137.366 137.366-137.366 137.366 62.439 137.366 137.366-56.195 137.366-137.366 137.366zM49.951-39.024c-12.488 0-18.732 6.244-31.22 12.488-18.732 18.732-18.732 43.707 0 56.195l886.634 886.634c18.732 18.732 43.707 18.732 56.195 0s18.732-43.707 0-56.195l-886.634-886.634c-6.244-12.488-18.732-12.488-24.976-12.488z" />
<glyph unicode="&#xe941;" glyph-name="eye-open" d="M1017.4 468c-9 12.4-227 306.4-505.4 306.4s-496.4-294-505.6-306.4c-8.6-11.8-8.6-28 0-39.8 9.2-12.6 227.2-306.4 505.4-306.4s496.4 294 505.4 306.4c9 11.8 9 27.8 0.2 39.8zM512 189.2c-205 0-382.6 195-435.2 258.8 52.4 63.8 229.6 258.8 435.2 258.8 205 0 382.6-195 435.2-258.8-52.4-63.8-229.8-258.8-435.2-258.8zM512 650.6c-111.6 0-202.6-90.8-202.6-202.6s91-202.6 202.6-202.6 202.6 91 202.6 202.6-91 202.6-202.6 202.6zM512 313c-74.4 0-135 60.6-135 135s60.6 135 135 135 135-60.6 135-135-60.6-135-135-135z" />
<glyph unicode="&#xe942;" glyph-name="eye-close" d="M1017.4 468c-5.4 7.2-81.2 109.6-198.6 194.2l163.6 163.6-51 51-174.2-174.8c-72.2 41.8-155.6 72.2-245.2 72.2-278.4 0.2-496.4-293.8-505.6-306.2-8.6-11.8-8.6-28 0-39.8 6-8.2 103.4-139.6 249.2-227.6l-183-183 51-51 198.8 198.8c58.2-26.4 122.2-43.6 189.8-43.6 278.4 0 496.4 294 505.4 306.4 8.6 11.8 8.6 27.8-0.2 39.8zM76.8 448c52.4 63.8 229.6 258.8 435.2 258.8 69.6 0 136-22.4 195.4-54.6l-56.8-56.8c-36.2 34-85 55-138.6 55-111.6 0-202.6-90.8-202.6-202.6 0-53.6 21-102.4 55-138.6l-59.2-59.2c-110.2 63-194.8 157.2-228.4 198zM647 448c0-74.4-60.6-135-135-135-12.8 0-25.2 1.8-37 5.2l166.8 166.8c3.4-11.8 5.2-24.2 5.2-37zM377 448c0 74.4 60.6 135 135 135 35 0 66.8-13.4 90.8-35.2l-190.6-190.6c-21.8 24-35.2 55.8-35.2 90.8zM512 189.2c-48 0-94.4 10.6-138 27.8l49 49c26.8-13.2 57-20.6 89-20.6 111.6 0 202.6 90.8 202.6 202.6 0 32-7.4 62.2-20.6 89l76.2 76.2c84.8-59.4 148.8-131.2 177-165.2-52.4-63.8-229.8-258.8-435.2-258.8z" />
<glyph unicode="&#xe943;" glyph-name="accept-g" horiz-adv-x="1328" d="M464-64l-448 544 112 96 336-400 736 784 128-112z" />
<glyph unicode="&#xe944;" glyph-name="filter" d="M1020.2 889c-6.8 14.6-21.4 24-37.6 24h-941.2c-16.2 0-30.8-9.4-37.6-24s-4.4-31.8 6-44.2l366.8-433.6v-292.6c0-15.6 8.8-30 22.8-37l188.2-94.2c5.8-3 12.2-4.4 18.4-4.4 7.6 0 15.2 2 21.8 6.2 12.2 7.6 19.6 20.8 19.6 35.2v386.8l366.8 433.6c10.4 12.4 12.8 29.6 6 44.2zM574.6 453c-6.4-7.4-9.8-17-9.8-26.8v-335l-105.6 52.8v282.4c0 9.8-3.4 19.2-9.8 26.8l-318.8 377h763l-319-377.2z" />
<glyph unicode="&#xe946;" horiz-adv-x="1020" d="M918.524-59.605h-821.837c-52.738 0-96.687 39.554-96.687 96.687v821.837c0 52.738 43.948 96.687 96.687 96.687h821.837c52.738 0 96.687-43.948 96.687-96.687v-821.837c0-57.133-39.554-96.687-96.687-96.687z" />
<glyph unicode="&#xe947;" horiz-adv-x="1020" d="M685.597 419.433c8.79 8.79 30.764 8.79 43.948 0 8.79-8.79 8.79-30.764 0-43.948l-180.189-184.584c-4.395-4.395-13.185-8.79-21.974-8.79s-17.579 4.395-21.974 8.79l-184.584 184.584c-8.79 8.79-8.79 30.764 0 43.948s30.764 8.79 43.948 0l127.451-127.451v461.459c0 17.579 13.185 30.764 30.764 30.764s30.764-13.185 30.764-30.764v-461.459l131.845 127.451z" />
<glyph unicode="&#xe948;" horiz-adv-x="1020" d="M101.082 955.605h821.837c52.738 0 96.687-43.948 96.687-96.687v-821.837c0-52.738-43.948-96.687-96.687-96.687h-821.837c-52.738 0-96.687 43.948-96.687 96.687v826.232c0 52.738 39.554 92.292 96.687 92.292z" />
<glyph unicode="&#xe949;" horiz-adv-x="1020" d="M334.009 476.567c-8.79-8.79-30.764-8.79-43.948 0-8.79 8.79-8.79 30.764 0 43.948l180.189 184.584c4.395 4.395 13.185 8.79 21.974 8.79s17.579-4.395 21.974-8.79l184.584-184.584c8.79-8.79 8.79-30.764 0-43.948s-30.764-8.79-43.948 0l-127.451 127.451v-461.459c0-17.579-13.185-30.764-30.764-30.764s-30.764 13.185-30.764 30.764v461.459l-131.845-127.451z" />
<glyph unicode="&#xe94a;" glyph-name="notif" d="M983.791 190.66c-92.035 79.525-177.368 192.112-177.368 472.237 0 162.625-132.244 294.422-294.422 294.422-162.625 0-294.422-132.244-294.422-294.422 0-280.572-85.333-392.712-177.368-472.684-25.466-22.339-40.209-54.506-40.209-88.014 0-18.318 15.19-33.508 33.508-33.508h318.101c15.637-74.611 81.759-130.457 160.391-130.457s145.201 56.293 160.391 130.457h318.101c18.318 0 33.508 15.19 33.508 33.508 0 33.955-14.743 66.122-40.209 88.461zM512 5.25c-41.55 0-77.291 26.36-91.141 63.442h182.283c-13.85-36.635-49.145-63.442-91.141-63.442zM80.419 136.154c1.34 1.34 2.681 2.681 4.021 3.574 140.286 121.075 200.6 277.892 200.6 523.169 0 125.543 102.311 227.407 227.407 227.407 125.543 0 227.407-101.864 227.407-227.407 0-245.277 59.867-401.647 200.6-523.169 1.34-1.34 2.681-2.234 4.021-3.574h-864.056z" />
<glyph unicode="&#xe94b;" glyph-name="login" horiz-adv-x="2147" d="M0-61.976h1335.652v1021.976h-1335.652v-1021.976zM40.474 919.526h1254.704v-941.028h-1254.704v941.028zM2145.138 838.577h-639.494v40.474h-127.494v-849.96h123.447v40.474h643.542v769.012zM2104.664 108.016h-643.542v-40.474h-42.498v771.036h46.545v-40.474h639.494v-690.087zM2068.237 757.628h-526.166v-119.399h526.166v119.399zM2027.763 678.704h-445.217v38.451h445.217v-38.451zM1967.051 593.708h-424.98v-119.399h424.98v119.399zM1926.577 514.783h-344.032v38.451h344.032v-38.451zM1967.051 433.834h-424.98v-121.423h424.98v121.423zM1926.577 352.885h-344.032v40.474h344.032v-40.474zM2068.237 271.937h-526.166v-121.423h526.166v121.423zM2027.763 190.988h-445.217v40.474h445.217v-40.474zM287.368 601.802c-80.949 0-147.731-66.783-147.731-147.731s66.783-147.731 147.731-147.731 147.731 66.783 147.731 147.731-66.783 147.731-147.731 147.731zM287.368 346.814c-58.688 0-107.257 48.569-107.257 107.257s48.569 107.257 107.257 107.257 107.257-48.569 107.257-107.257-48.569-107.257-107.257-107.257z" />
<glyph unicode="&#xe94c;" glyph-name="close-modal" horiz-adv-x="1123" d="M95.256 960h-95.256l1020.598-1020.598h95.256zM1109.050 960h-95.256l-384.425-391.229 47.628-47.628zM6.804-64h95.256l367.415 374.219-47.628 47.628z" />
</font>
</defs>
</svg>
